<?xml version="1.0" encoding="UTF-8" standalone="no"?>
<svg
   xmlns:dc="http://purl.org/dc/elements/1.1/"
   xmlns:cc="http://creativecommons.org/ns#"
   xmlns:rdf="http://www.w3.org/1999/02/22-rdf-syntax-ns#"
   xmlns:svg="http://www.w3.org/2000/svg"
   xmlns="http://www.w3.org/2000/svg"
   xmlns:sodipodi="http://sodipodi.sourceforge.net/DTD/sodipodi-0.dtd"
   xmlns:inkscape="http://www.inkscape.org/namespaces/inkscape"
   version="1.0"
   width="1231.000000pt"
   height="1280.000000pt"
   viewBox="0 0 1231.000000 1280.000000"
   preserveAspectRatio="xMidYMid meet"
   id="svg11786"
   sodipodi:docname="investigate.svg"
   inkscape:version="0.92.3 (2405546, 2018-03-11)">
  <metadata
     id="metadata11792">
    <rdf:RDF>
      <cc:Work
         rdf:about="">
        <dc:format>image/svg+xml</dc:format>
        <dc:type
           rdf:resource="http://purl.org/dc/dcmitype/StillImage" />
      </cc:Work>
    </rdf:RDF>
  </metadata>
  <defs
     id="defs11790" />
  <sodipodi:namedview
     pagecolor="#ffffff"
     bordercolor="#666666"
     borderopacity="1"
     objecttolerance="10"
     gridtolerance="10"
     guidetolerance="10"
     inkscape:pageopacity="0"
     inkscape:pageshadow="2"
     inkscape:window-width="1521"
     inkscape:window-height="768"
     id="namedview11788"
     showgrid="false"
     inkscape:zoom="0.39111844"
     inkscape:cx="820.66667"
     inkscape:cy="1006.7396"
     inkscape:window-x="0"
     inkscape:window-y="25"
     inkscape:window-maximized="1"
     inkscape:current-layer="g11784" />
  <g
     transform="translate(0.000000,1280.000000) scale(0.100000,-0.100000)"
     fill="#000000"
     stroke="none"
     id="g11784">
    <path
       d="M3895 12689 c-1285 -124 -2416 -804 -3117 -1875 -383 -586 -607 -1236 -668 -1944 -20 -238 -11 -621 21 -870 203 -1580 1301 -2917 2809 -3421 612 -204 1213 -263 1859 -183 628 78 1246 309 1780 667 l105 70 94 -97 95 -98 -82 -82 c-48 -48 -81 -90 -81 -102 0 -23 4250 -4734 4282 -4747 24 -9 184 72 311 157 339 228 758 660 955 984 36 59 49 89 44 102 -4 11 -271 297 -592 637 -322 340 -1309 1382 -2193 2315 -885 934 -1615 1698 -1624 1698 -9 0 -66 -50 -128 -110 l-112 -111 -79 81 c-43 45 -83 88 -87 96 -6 11 4 32 36 72 180 230 291 400 449 692 48 87 130 270 183 406 325 836 369 1780 123 2644 -226 796 -697 1524 -1327 2051 -676 567 -1453 887 -2351 968 -134 13 -575 12 -705 0z m616 -409 c509 -38 938 -150 1375 -360 974 -467 1701 -1328 1992 -2360 58 -203 86 -342 118 -576 23 -163 26 -716 6 -859 -29 -201 -34 -234 -53 -330 -112 -560 -345 -1077 -689 -1530 -571 -753 -1414 -1270 -2331 -1429 -274 -47 -320 -51 -664 -51 -336 0 -389 4 -640 46 -1164 197 -2181 953 -2714 2017 -409 817 -508 1738 -280 2622 214 831 698 1552 1389 2071 706 531 1625 803 2491 739z"
       id="path11752" />
    <path
       d="M981 7484 c0 -11 3 -14 6 -6 3 7 2 16 -1 19 -3 4 -6 -2 -5 -13z"
       id="path11760" />
    <path
       d="M3988 5093 c12 -2 32 -2 45 0 12 2 2 4 -23 4 -25 0 -35 -2 -22 -4z"
       id="path11782" />
  </g>
</svg>
