<?xml version="1.0" encoding="UTF-8" standalone="no"?>
<!-- Svg Vector Icons : http://www.onlinewebfonts.com/icon -->

<svg
   xmlns:dc="http://purl.org/dc/elements/1.1/"
   xmlns:cc="http://creativecommons.org/ns#"
   xmlns:rdf="http://www.w3.org/1999/02/22-rdf-syntax-ns#"
   xmlns:svg="http://www.w3.org/2000/svg"
   xmlns="http://www.w3.org/2000/svg"
   xmlns:sodipodi="http://sodipodi.sourceforge.net/DTD/sodipodi-0.dtd"
   xmlns:inkscape="http://www.inkscape.org/namespaces/inkscape"
   height="50px"
   width="50px"
   fill="#000000"
   version="1.1"
   x="0px"
   y="0px"
   viewBox="0 0 64 64"
   enable-background="new 0 0 64 64"
   xml:space="preserve"
   id="svg2368"
   sodipodi:docname="monitoring.svg"
   inkscape:version="0.92.4 (5da689c313, 2019-01-14)"><metadata
   id="metadata2374"><rdf:RDF><cc:Work
       rdf:about=""><dc:format>image/svg+xml</dc:format><dc:type
         rdf:resource="http://purl.org/dc/dcmitype/StillImage" /></cc:Work></rdf:RDF></metadata><defs
   id="defs2372" /><sodipodi:namedview
   pagecolor="#ffffff"
   bordercolor="#666666"
   borderopacity="1"
   objecttolerance="10"
   gridtolerance="10"
   guidetolerance="10"
   inkscape:pageopacity="0"
   inkscape:pageshadow="2"
   inkscape:window-width="765"
   inkscape:window-height="507"
   id="namedview2370"
   showgrid="false"
   inkscape:zoom="4.72"
   inkscape:cx="25"
   inkscape:cy="25"
   inkscape:window-x="0"
   inkscape:window-y="25"
   inkscape:window-maximized="0"
   inkscape:current-layer="svg2368" />
  <g
   id="g2366"
   style="fill:#ffffff">
    <path
   fill="#000000"
   d="M51.55,25.875c-0.44-0.46-0.94-0.92-1.5-1.35c-6.15-4.87-13.26-6.98-21.09-6.27   c-5.73,0.51-10.88,2.57-15.31,6.12c-0.48,0.39-0.91,0.78-1.27,1.17c-0.39,0.42-0.57,0.92-0.53,1.4c0.05,0.47,0.3,0.89,0.74,1.22   c2.05,1.52,4.18,3.06,6.32,4.58c0.44,0.31,0.94,0.52,1.42,0.72l0.03,0.01c0.15,0.06,0.31,0.1,0.46,0.1c0.46,0,0.81-0.29,0.89-0.73   c0.07-0.4-0.17-0.89-0.43-1.13c-0.27-0.23-0.53-0.46-0.79-0.69c-1.37-1.2-2.66-2.34-3.88-3.64c2.49-1.93,5.21-3.28,8.29-4.14   l0.42-0.12c-0.04,0.09-0.07,0.17-0.11,0.26c-0.37,0.77-0.76,1.52-0.95,2.32c-0.23,1-0.33,2.09-0.2,3.11c0.12,1,0.47,2.03,0.97,2.9   c0.51,0.89,1.24,1.71,2.03,2.37c2.74,2.29,6.95,2.27,9.82,0.03c1.52-1.18,2.5-2.71,2.91-4.58c0.49-2.24,0.08-4.31-1.21-6.3   c0.01,0,0.03,0,0.04,0.01l0.06,0.02h0.01c3.28,0.96,6.18,2.47,8.84,4.61c-0.4,0.39-1.4,1.16-2.16,1.75   c-2.86,2.19-3.55,2.81-3.24,3.39c0.24,0.44,0.59,0.5,0.78,0.5c0.29,0,0.56-0.14,0.77-0.25c0.05-0.03,0.1-0.06,0.15-0.08   c2.39-1.15,4.85-2.67,7.5-4.64c0.5-0.37,0.78-0.8,0.82-1.27C52.19,26.805,51.99,26.335,51.55,25.875z M32,31.335   c-1.87,0-3.38-1.51-3.38-3.38s1.51-3.38,3.38-3.38c1.87,0,3.38,1.51,3.38,3.38S33.87,31.335,32,31.335z"
   id="path2362"
   style="fill:#ffffff" />
    <path
   fill="#000000"
   d="M55.15,3.825H8.85c-4.34,0-7.88,3.54-7.88,7.88v30c0,4.34,3.54,7.88,7.88,7.88h16.54v3.48   c0,1.85-2.09,3.14-3.59,3.87c-0.83,0.39-1.74,0.73-2.61,0.91c-0.11,0-0.21,0.07-0.28,0.07c-0.07,0.03-0.1,0.07-0.14,0.07   c-0.31,0.21-0.56,0.56-0.56,1.01v0.07c0,0.42,0.25,0.8,0.56,1.01c0.11,0.03,0.21,0.07,0.31,0.1h25.8c0.11-0.03,0.21-0.07,0.32-0.1   c0.34-0.21,0.59-0.59,0.59-1.01v-0.07c0-0.45-0.25-0.8-0.59-1.01c-0.04,0-0.11-0.04-0.14-0.07c-0.07,0-0.18-0.07-0.25-0.07   c-0.9-0.18-1.78-0.52-2.61-0.91c-1.54-0.73-3.59-2.02-3.59-3.87v-3.48h16.54c4.34,0,7.88-3.54,7.88-7.88v-30   C63.03,7.365,59.49,3.825,55.15,3.825z M57.16,41.705c0,1.11-0.9,2.01-2.01,2.01H8.85c-1.1,0-2-0.9-2-2.01v-30c0-1.1,0.9-2,2-2   h46.3c1.11,0,2.01,0.9,2.01,2V41.705z"
   id="path2364"
   style="fill:#ffffff" />
  </g>
</svg>