<?xml version="1.0" encoding="UTF-8" standalone="no"?>
<!-- Created with Inkscape (http://www.inkscape.org/) -->

<svg
   xmlns:dc="http://purl.org/dc/elements/1.1/"
   xmlns:cc="http://creativecommons.org/ns#"
   xmlns:rdf="http://www.w3.org/1999/02/22-rdf-syntax-ns#"
   xmlns:svg="http://www.w3.org/2000/svg"
   xmlns="http://www.w3.org/2000/svg"
   xmlns:sodipodi="http://sodipodi.sourceforge.net/DTD/sodipodi-0.dtd"
   xmlns:inkscape="http://www.inkscape.org/namespaces/inkscape"
   width="54.291603mm"
   height="44.037586mm"
   viewBox="0 0 54.291603 44.037586"
   version="1.1"
   id="svg2769"
   sodipodi:docname="velo_colors_nick.svg"
   inkscape:version="0.92.4 (5da689c313, 2019-01-14)">
  <defs
     id="defs2763" />
  <sodipodi:namedview
     id="base"
     pagecolor="#ffffff"
     bordercolor="#666666"
     borderopacity="1.0"
     inkscape:pageopacity="0.0"
     inkscape:pageshadow="2"
     inkscape:zoom="2.8"
     inkscape:cx="139.88772"
     inkscape:cy="81.279614"
     inkscape:document-units="mm"
     inkscape:current-layer="layer1"
     showgrid="false"
     inkscape:window-width="1920"
     inkscape:window-height="1026"
     inkscape:window-x="0"
     inkscape:window-y="25"
     inkscape:window-maximized="1"
     fit-margin-top="0"
     fit-margin-left="0"
     fit-margin-right="0"
     fit-margin-bottom="0" />
  <metadata
     id="metadata2766">
    <rdf:RDF>
      <cc:Work
         rdf:about="">
        <dc:format>image/svg+xml</dc:format>
        <dc:type
           rdf:resource="http://purl.org/dc/dcmitype/StillImage" />
        <dc:title></dc:title>
      </cc:Work>
    </rdf:RDF>
  </metadata>
  <g
     inkscape:label="Layer 1"
     inkscape:groupmode="layer"
     id="layer1"
     transform="translate(492.05651,-39.880016)">
    <path
       inkscape:connector-curvature="0"
       id="path24"
       style="fill:#00ac00;fill-rule:evenodd;stroke-width:0.26458332;fill-opacity:1"
       d="m -484.83439,73.82613 c -0.44032,1.14771 -0.84817,2.198026 -1.22354,3.150897 -0.15878,0.411453 -0.31943,0.819282 -0.48181,1.223459 -0.16245,0.404257 -0.31403,0.779648 -0.45481,1.126146 -0.14076,0.346499 -0.26707,0.647833 -0.37897,0.904108 -0.11189,0.256196 -0.19671,0.438521 -0.25447,0.546762 -0.12269,0.231007 -0.26707,0.389837 -0.43305,0.476461 -0.16605,0.08663 -0.32123,0.137107 -0.46561,0.15158 -0.18053,0.02167 -0.35737,0.0036 -0.53062,-0.05413 l -2.99924,-7.525283 c 0.17325,-0.02889 0.3483,-0.04157 0.52515,-0.03789 0.17684,0.0036 0.3411,0.03249 0.49268,0.08662 0.15158,0.05408 0.29054,0.137107 0.41685,0.249 0.12628,0.111918 0.22918,0.261673 0.30861,0.449342 0.007,0.02887 0.0415,0.120967 0.10284,0.276145 0.0613,0.155178 0.13716,0.350097 0.22738,0.584703 0.0902,0.23458 0.18945,0.496252 0.29777,0.785019 0.10829,0.28866 0.22018,0.581025 0.33562,0.877041 0.26715,0.700193 0.57028,1.48336 0.90958,2.349605 0.33203,-0.866245 0.63159,-1.649412 0.89866,-2.349605 0.11549,-0.296016 0.22741,-0.588381 0.3357,-0.877041 0.10822,-0.288767 0.20752,-0.550439 0.29774,-0.785019 0.0903,-0.234606 0.16605,-0.429525 0.22741,-0.584703 0.0614,-0.155178 0.0992,-0.247279 0.11369,-0.276145 0.0793,-0.187669 0.18227,-0.337424 0.30856,-0.449342 0.12631,-0.111893 0.26527,-0.194919 0.41685,-0.249 0.15166,-0.05413 0.31403,-0.08303 0.48728,-0.08662 0.17325,-0.0037 0.3465,0.009 0.51975,0.03789 z m 3.35656,6.474963 c 0.0866,0.05056 0.16965,0.137186 0.24908,0.259874 l 0.0325,0.03249 -0.0325,0.03247 c -0.23821,0.259874 -0.52158,0.463788 -0.85,0.611769 -0.32841,0.147982 -0.68393,0.222012 -1.06657,0.222012 -0.33202,0 -0.64426,-0.06683 -0.93659,-0.200342 -0.29237,-0.133567 -0.55036,-0.31941 -0.77415,-0.557615 -0.21653,-0.231007 -0.38798,-0.503475 -0.51435,-0.817509 -0.12631,-0.314008 -0.18947,-0.651457 -0.18947,-1.012428 0,-0.360892 0.056,-0.698395 0.16785,-1.012349 0.11192,-0.314008 0.2725,-0.5901 0.48181,-0.828358 0.20934,-0.231007 0.46382,-0.415051 0.76335,-0.552159 0.29956,-0.137186 0.63347,-0.205792 1.00155,-0.205792 0.20212,0 0.42413,0.03074 0.66593,0.0921 0.24181,0.06133 0.46739,0.158776 0.67673,0.292338 0.20931,0.133509 0.38256,0.308557 0.51975,0.525145 0.13716,0.216535 0.20571,0.476409 0.20571,0.779568 0,0.295937 -0.0757,0.53602 -0.22738,0.720064 -0.15158,0.184044 -0.33203,0.328427 -0.54137,0.433123 -0.20931,0.104616 -0.43132,0.176847 -0.66593,0.216535 -0.23458,0.03966 -0.43852,0.05953 -0.61177,0.05953 -0.26707,0 -0.49987,-0.01627 -0.69839,-0.04874 -0.19847,-0.03249 -0.33383,-0.05596 -0.40606,-0.07035 0.0289,0.259874 0.0866,0.471011 0.17325,0.633439 0.0866,0.162375 0.18413,0.290566 0.29237,0.384387 0.10829,0.09382 0.21658,0.156977 0.32483,0.189441 0.10829,0.03249 0.20571,0.04876 0.29233,0.04876 0.15166,0 0.29602,-0.01447 0.43313,-0.04337 0.13718,-0.02887 0.25987,-0.06133 0.36816,-0.09742 0.10832,-0.03606 0.21114,-0.07215 0.30856,-0.108294 0.0975,-0.03609 0.19312,-0.05408 0.28694,-0.05408 0.10113,0 0.19135,0.02521 0.2707,0.07575 z m -1.66749,-3.107558 c -0.0793,0.0072 -0.17317,0.02709 -0.28146,0.05956 -0.10832,0.03249 -0.21474,0.09202 -0.31943,0.178646 -0.1047,0.08663 -0.20034,0.209339 -0.28697,0.368195 -0.0866,0.15875 -0.14795,0.360891 -0.18404,0.606292 0.11551,0.03614 0.27969,0.07043 0.49268,0.102897 0.21293,0.03246 0.42584,0.03786 0.63878,0.01619 0.21299,-0.02159 0.40063,-0.08295 0.56309,-0.184044 0.16237,-0.101018 0.2508,-0.270669 0.26527,-0.508873 0.0144,-0.180446 -0.0559,-0.335703 -0.21111,-0.465614 -0.15526,-0.129963 -0.38079,-0.187722 -0.67681,-0.173249 z m 5.09985,3.183387 c 0.0145,0.187643 0,0.357294 -0.0433,0.508874 -0.0361,0.129963 -0.10832,0.254476 -0.21662,0.373565 -0.10821,0.119115 -0.27786,0.18587 -0.50887,0.200342 -0.22378,0.02159 -0.41865,-0.0019 -0.5847,-0.07043 -0.16605,-0.06855 -0.30493,-0.164174 -0.41685,-0.28694 -0.1119,-0.122714 -0.19492,-0.267097 -0.24908,-0.43307 -0.0541,-0.166027 -0.0812,-0.339302 -0.0812,-0.519748 v -5.273093 c -0.007,-0.216588 -0.0126,-0.391636 -0.0162,-0.525145 -0.004,-0.133588 -0.009,-0.240003 -0.0163,-0.319431 -0.007,-0.08662 -0.0144,-0.155178 -0.0216,-0.205714 0.44751,0 0.79041,0.09382 1.02862,0.281464 0.2382,0.187722 0.35729,0.49448 0.35729,0.920406 v 4.99155 c 0,0.173249 0.0325,0.297815 0.0974,0.373565 0.065,0.07583 0.14079,0.120914 0.22741,0.135387 0.0866,0.01439 0.17325,0.0054 0.25987,-0.02709 0.0866,-0.03247 0.14799,-0.074 0.18405,-0.124487 z m 4.84005,-3.33494 c 0.22381,0.230981 0.39886,0.503475 0.52514,0.817483 0.12631,0.313954 0.18947,0.651457 0.18947,1.012349 0,0.360971 -0.0578,0.69842 -0.17325,1.012428 -0.11552,0.314034 -0.27789,0.586502 -0.4872,0.817509 -0.20934,0.238205 -0.46382,0.425847 -0.76335,0.563007 -0.29964,0.137187 -0.63347,0.20574 -1.00164,0.20574 -0.33202,0 -0.64423,-0.06855 -0.93659,-0.20574 -0.29234,-0.13716 -0.55036,-0.324802 -0.77415,-0.563007 -0.21653,-0.231007 -0.38798,-0.503475 -0.51435,-0.817509 -0.12631,-0.314008 -0.18944,-0.651457 -0.18944,-1.012428 0,-0.360892 0.0559,-0.698395 0.16783,-1.012349 0.11191,-0.314008 0.27249,-0.586502 0.4818,-0.817483 0.20934,-0.238205 0.46382,-0.425926 0.76335,-0.563034 0.29956,-0.137186 0.63347,-0.205792 1.00155,-0.205792 0.33931,0 0.65514,0.06861 0.94748,0.205792 0.29236,0.137108 0.54684,0.324829 0.76335,0.563034 z m -1.71083,3.497315 c 0.0939,0 0.20395,-0.02159 0.33031,-0.06496 0.12629,-0.04326 0.2472,-0.126286 0.36269,-0.248999 0.11552,-0.122767 0.21294,-0.292339 0.29237,-0.508953 0.0794,-0.216508 0.11908,-0.498078 0.11908,-0.844576 0,-0.346499 -0.0397,-0.629762 -0.11908,-0.849974 -0.0794,-0.220107 -0.17685,-0.389758 -0.29237,-0.508873 -0.11549,-0.119089 -0.2364,-0.200316 -0.36269,-0.243602 -0.12636,-0.04334 -0.2364,-0.06501 -0.33031,-0.06501 -0.0938,0 -0.20391,0.02167 -0.33022,0.06501 -0.12629,0.04329 -0.2472,0.124513 -0.36269,0.243602 -0.11552,0.119115 -0.21294,0.288766 -0.29237,0.508873 -0.0794,0.220212 -0.11909,0.503475 -0.11909,0.849974 0,0.346498 0.0397,0.628068 0.11909,0.844576 0.0794,0.216614 0.17685,0.386186 0.29237,0.508953 0.11549,0.122713 0.2364,0.20574 0.36269,0.248999 0.12631,0.04337 0.2364,0.06496 0.33022,0.06496 z m 5.59793,-3.345762 c -0.0938,0 -0.20392,0.0217 -0.33023,0.06495 -0.12629,0.04337 -0.2472,0.124513 -0.36269,0.243602 -0.11549,0.119169 -0.21294,0.288766 -0.29234,0.508953 -0.0794,0.220133 -0.11911,0.503475 -0.11911,0.849974 0,0.346498 0.0397,0.629787 0.11911,0.849974 0.0794,0.220133 0.17685,0.389784 0.29234,0.508873 0.11549,0.119115 0.2364,0.200342 0.36269,0.243681 0.12631,0.04329 0.23641,0.06495 0.33023,0.06495 0.15166,0 0.29604,-0.01447 0.43312,-0.04337 0.13719,-0.02887 0.25987,-0.06133 0.36819,-0.09742 0.1083,-0.04326 0.21111,-0.08123 0.30853,-0.113691 0.0975,-0.03249 0.19315,-0.04868 0.28697,-0.04868 0.0938,0 0.18772,0.02521 0.28154,0.07575 0.0794,0.05056 0.16238,0.133588 0.249,0.249079 l 0.0217,0.04328 -0.0325,0.03247 c -0.2382,0.259874 -0.52154,0.463788 -0.84997,0.611769 -0.32843,0.147982 -0.68032,0.222012 -1.05571,0.222012 -0.33931,0 -0.65511,-0.06863 -0.94748,-0.20574 -0.29234,-0.13716 -0.55033,-0.321204 -0.77414,-0.552212 -0.21654,-0.231007 -0.38799,-0.503475 -0.51435,-0.817509 -0.12631,-0.314008 -0.18944,-0.651457 -0.18944,-1.012428 0,-0.360892 0.0577,-0.698395 0.17325,-1.012349 0.11549,-0.314008 0.27786,-0.5901 0.48725,-0.828358 0.20934,-0.231007 0.46194,-0.415051 0.75788,-0.552159 0.29604,-0.137186 0.62806,-0.205792 0.99615,-0.205792 0.38267,0 0.73816,0.074 1.06659,0.221985 0.32843,0.147981 0.61177,0.351896 0.84997,0.61177 l 0.0325,0.03249 -0.0325,0.04334 c -0.0794,0.129911 -0.16245,0.212937 -0.24908,0.248999 -0.0938,0.05776 -0.18404,0.08303 -0.27066,0.07583 -0.0938,0 -0.18947,-0.01627 -0.28697,-0.04874 -0.0974,-0.03249 -0.20024,-0.06676 -0.30853,-0.102923 -0.10832,-0.04326 -0.23101,-0.08115 -0.3682,-0.113612 -0.13708,-0.03254 -0.28146,-0.04876 -0.43312,-0.04876 z m 4.04963,-2.403739 c -0.15166,0.252597 -0.36097,0.378962 -0.62804,0.378962 -0.11552,0 -0.22373,-0.02527 -0.32483,-0.0758 -0.10829,-0.06495 -0.19127,-0.149781 -0.249,-0.254476 -0.0578,-0.104643 -0.0866,-0.218334 -0.0866,-0.341022 0,-0.137186 0.0325,-0.259873 0.0974,-0.368194 0.065,-0.122687 0.15518,-0.218307 0.27067,-0.28694 0.11552,-0.06855 0.2346,-0.102817 0.35729,-0.102817 0.10832,0 0.21302,0.02887 0.31404,0.08662 0.11549,0.05773 0.20211,0.140758 0.25987,0.248999 0.0578,0.108294 0.0866,0.223785 0.0866,0.346499 0,0.129963 -0.0325,0.252677 -0.0974,0.368168 z m 0.84458,5.587126 c -0.0361,0.05048 -0.0975,0.09202 -0.18413,0.124487 -0.0866,0.03249 -0.17325,0.04149 -0.25987,0.02709 -0.0866,-0.01447 -0.16238,-0.05956 -0.22733,-0.135387 -0.065,-0.07575 -0.0975,-0.200316 -0.0975,-0.373565 v -2.587811 c 0,-0.216508 0.002,-0.391556 0.005,-0.525145 0.004,-0.133508 0.009,-0.240003 0.0163,-0.319431 0.007,-0.08663 0.0145,-0.155178 0.0217,-0.205714 -0.4476,0 -0.78682,0.09382 -1.01783,0.281544 -0.23098,0.187642 -0.3465,0.498078 -0.3465,0.931201 l -0.0108,2.555319 c 0,0.180446 0.0271,0.353721 0.0812,0.519748 0.0541,0.165973 0.13711,0.310356 0.249,0.43307 0.1119,0.122766 0.25088,0.218387 0.41685,0.28694 0.16606,0.06863 0.36098,0.09202 0.58471,0.07043 0.23101,-0.01447 0.40066,-0.08123 0.50895,-0.200342 0.10821,-0.119089 0.18045,-0.243602 0.21651,-0.373565 0.0434,-0.15158 0.0578,-0.321231 0.0434,-0.508874 z m 0.55221,-1.634992 c 0,-0.483685 0.0703,-0.878867 0.21114,-1.185678 0.14078,-0.306758 0.32303,-0.546761 0.54681,-0.72001 0.22373,-0.173249 0.47461,-0.290539 0.75247,-0.351896 0.27798,-0.06136 0.55404,-0.09202 0.82839,-0.09202 h 0.53054 c 0.0361,0.15158 0.0433,0.292338 0.0217,0.422248 -0.0145,0.108294 -0.0632,0.212937 -0.14615,0.314034 -0.083,0.101018 -0.21842,0.162375 -0.40606,0.184045 -0.12271,0.01439 -0.24368,0.04146 -0.36277,0.08123 -0.11912,0.03966 -0.22553,0.108214 -0.31943,0.205713 -0.0938,0.09742 -0.17137,0.236405 -0.23281,0.416851 -0.0613,0.180446 -0.092,0.422249 -0.092,0.725488 v 1.569958 c 0,0.216614 0.002,0.391663 0.005,0.525171 0.004,0.133562 0.009,0.240057 0.0163,0.319405 0.007,0.08663 0.0145,0.151659 0.0217,0.194945 -0.44034,0 -0.77965,-0.09205 -1.01782,-0.276092 -0.23821,-0.184124 -0.35732,-0.492681 -0.35732,-0.925804 z m 4.03876,-0.15158 c 0.19484,-0.122767 0.41505,-0.214815 0.66045,-0.276146 0.24548,-0.06136 0.50168,-0.09202 0.76883,-0.09202 0.37528,0 0.73268,0.05413 1.0719,0.162428 -0.0216,-0.223785 -0.0686,-0.422302 -0.14078,-0.595551 -0.0938,-0.223731 -0.23461,-0.386186 -0.42225,-0.487203 -0.0721,-0.03617 -0.14978,-0.06324 -0.23281,-0.08123 -0.083,-0.01807 -0.17864,-0.02709 -0.28694,-0.02709 h -0.11911 c -0.10102,0.0072 -0.20212,0.02349 -0.30314,0.04876 -0.10109,0.02519 -0.20214,0.05588 -0.30324,0.09202 -0.10101,0.03609 -0.20203,0.06675 -0.30313,0.09202 -0.10104,0.02527 -0.19854,0.03789 -0.29236,0.03789 -0.10102,0 -0.19852,-0.0217 -0.29234,-0.06495 -0.0866,-0.05056 -0.16238,-0.133588 -0.22741,-0.249079 l -0.0216,-0.04328 0.0216,-0.03247 c 0.21661,-0.231008 0.47101,-0.416851 0.76335,-0.557636 0.29236,-0.140758 0.61177,-0.221985 0.95827,-0.243654 0.0361,-0.0072 0.0668,-0.01082 0.092,-0.01082 0.0253,0 0.0559,0 0.092,0 0.33207,0 0.63523,0.05956 0.90958,0.178673 0.27429,0.119089 0.51247,0.283342 0.71461,0.492654 0.41146,0.447543 0.62437,1.035844 0.63884,1.764903 v 0.08662 c 0,0.750755 -0.19132,1.360726 -0.57388,1.829938 -0.18767,0.231007 -0.41325,0.41865 -0.67673,0.563007 -0.26349,0.144383 -0.55763,0.234606 -0.88246,0.270695 -0.0433,0.0073 -0.0866,0.01087 -0.12996,0.01087 -0.0433,0 -0.0902,0 -0.14071,0 -0.15166,0 -0.31044,-0.01267 -0.47649,-0.03797 -0.16597,-0.02519 -0.32843,-0.07395 -0.48718,-0.146156 -0.16605,-0.06496 -0.31763,-0.149781 -0.45481,-0.254397 -0.13711,-0.104722 -0.2526,-0.240004 -0.3465,-0.406056 -0.13711,-0.209339 -0.20931,-0.465614 -0.21651,-0.768747 v -0.06504 c 0,-0.281463 0.0577,-0.516069 0.17325,-0.703791 0.10102,-0.187669 0.25627,-0.350097 0.46559,-0.487204 z m 2.24131,0.519668 c -0.0938,-0.01439 -0.20026,-0.02887 -0.31943,-0.04326 -0.11912,-0.0145 -0.24001,-0.0217 -0.36272,-0.0217 -0.10102,0 -0.19852,0.0054 -0.29234,0.01627 -0.0938,0.01082 -0.18044,0.03069 -0.25987,0.05956 -0.18045,0.05776 -0.31763,0.147982 -0.41146,0.270669 -0.0361,0.04337 -0.065,0.09202 -0.0866,0.146182 -0.0217,0.05416 -0.0361,0.113692 -0.0433,0.178647 -0.007,0.02167 -0.0109,0.05416 -0.0109,0.09742 0,0.07223 0.0109,0.14986 0.0325,0.232807 0.0217,0.08303 0.065,0.160655 0.12997,0.232806 0.0578,0.07223 0.14258,0.133562 0.25447,0.184124 0.11184,0.05048 0.26168,0.07575 0.44935,0.07575 0.0577,0 0.10101,-0.0036 0.12988,-0.0108 0.20214,-0.0072 0.37899,-0.06495 0.53057,-0.173249 0.0722,-0.04337 0.13356,-0.09562 0.18412,-0.156977 0.0505,-0.06144 0.0938,-0.128191 0.12989,-0.200343 0.0794,-0.13716 0.13358,-0.277945 0.16245,-0.422301 0.0289,-0.144383 0.0433,-0.277892 0.0433,-0.400579 -0.007,0 -0.0126,-0.0019 -0.0162,-0.0055 -0.004,-0.0036 -0.009,-0.0054 -0.0163,-0.0054 -0.0289,-0.0072 -0.0613,-0.01442 -0.0974,-0.02162 -0.0361,-0.0073 -0.0794,-0.01807 -0.12996,-0.03254 z m 2.12227,-0.238204 c 0,-0.360892 0.0631,-0.698395 0.18945,-1.012349 0.12636,-0.314008 0.29773,-0.586502 0.51435,-0.817483 0.21653,-0.238205 0.47098,-0.425926 0.76335,-0.563034 0.29233,-0.137186 0.60817,-0.205792 0.94739,-0.205792 0.36817,0 0.70199,0.06861 1.00163,0.205792 0.29954,0.137108 0.55396,0.324829 0.76335,0.563034 0.20931,0.230981 0.37169,0.503475 0.48721,0.817483 0.11549,0.313954 0.17324,0.651457 0.17324,1.012349 0,0.360971 -0.0632,0.69842 -0.18946,1.012428 -0.12637,0.314034 -0.30142,0.586502 -0.52515,0.817509 -0.21659,0.238205 -0.47098,0.425847 -0.76335,0.563007 -0.29234,0.137187 -0.60817,0.20574 -0.94747,0.20574 -0.41145,0 -0.77594,-0.08303 -1.09358,-0.248999 l 0.0108,1.645788 c 0,0.216535 0.002,0.393382 0.005,0.530569 0.004,0.13716 0.009,0.245401 0.0163,0.324828 0.007,0.08662 0.0145,0.151554 0.0217,0.194919 -0.44759,0 -0.78864,-0.0939 -1.02322,-0.28157 -0.23461,-0.187642 -0.3519,-0.498051 -0.3519,-0.931174 z m 2.41454,1.667483 c 0.0939,0 0.20394,-0.02159 0.3303,-0.06496 0.12629,-0.04326 0.2472,-0.124486 0.3627,-0.243602 0.11551,-0.119089 0.21293,-0.28874 0.29236,-0.508952 0.0794,-0.220107 0.11909,-0.503476 0.11909,-0.849974 0,-0.346499 -0.0397,-0.627962 -0.11909,-0.844577 -0.0794,-0.216508 -0.17685,-0.38436 -0.29236,-0.503475 -0.1155,-0.119089 -0.23641,-0.200316 -0.3627,-0.243602 -0.12636,-0.04334 -0.2364,-0.06493 -0.3303,-0.06493 -0.0938,0 -0.20392,0.02159 -0.33023,0.06493 -0.12628,0.04329 -0.2472,0.124513 -0.36269,0.243602 -0.11549,0.119115 -0.21301,0.286967 -0.29236,0.503475 -0.0794,0.216615 -0.11909,0.498078 -0.11909,0.844577 0,0.346498 0.0397,0.629867 0.11909,0.849974 0.0793,0.220212 0.17687,0.389863 0.29236,0.508952 0.11549,0.119116 0.23641,0.200343 0.36269,0.243602 0.12631,0.04337 0.23641,0.06496 0.33023,0.06496 z m 6.21517,-0.140785 c 0,0.0217 0.004,0.04696 0.0108,0.07583 0.0144,0.05776 0.0217,0.111892 0.0217,0.162454 0,0.129911 -0.0289,0.2472 -0.0866,0.351896 -0.0578,0.104616 -0.13719,0.193066 -0.23821,0.265271 -0.20211,0.144383 -0.44759,0.216535 -0.73636,0.216535 -0.23818,0 -0.47278,-0.05416 -0.70379,-0.162375 -0.23101,-0.108294 -0.44032,-0.270748 -0.62796,-0.487283 -0.18775,-0.216588 -0.33751,-0.485457 -0.44934,-0.806688 -0.1119,-0.32123 -0.16786,-0.698394 -0.16786,-1.131464 l 0.0108,-3.129227 c 0,-0.433123 0.11552,-0.743532 0.34653,-0.931201 0.23098,-0.187722 0.5666,-0.281543 1.00695,-0.281543 -0.007,0.05056 -0.0144,0.119115 -0.0216,0.20574 -0.007,0.0794 -0.0127,0.185922 -0.0163,0.319405 -0.004,0.133588 -0.005,0.308636 -0.005,0.525171 l 0.0108,0.682123 h 1.45095 c 0,0.324881 -0.0902,0.584702 -0.27067,0.779621 -0.18053,0.194918 -0.43672,0.292338 -0.76883,0.292338 h -0.41145 l -0.0108,1.537573 c 0,0.30316 0.0271,0.557636 0.0812,0.763349 0.0541,0.20574 0.12808,0.373513 0.22193,0.503476 0.19492,0.245401 0.4476,0.368194 0.75793,0.368194 0.12999,0 0.2599,-0.0181 0.38986,-0.05416 0.0722,-0.02167 0.14071,-0.04334 0.20572,-0.06504 z m 4.64505,-3.35653 c 0.22381,0.230981 0.39886,0.503475 0.52517,0.817483 0.12629,0.313954 0.18944,0.651457 0.18944,1.012349 0,0.360971 -0.0578,0.69842 -0.17325,1.012428 -0.11551,0.314034 -0.27789,0.586502 -0.4872,0.817509 -0.20934,0.238205 -0.46379,0.425847 -0.76335,0.563007 -0.29961,0.137187 -0.63344,0.20574 -1.00163,0.20574 -0.33203,0 -0.64424,-0.06855 -0.9366,-0.20574 -0.29234,-0.13716 -0.55034,-0.324802 -0.77415,-0.563007 -0.21653,-0.231007 -0.38798,-0.503475 -0.51435,-0.817509 -0.12631,-0.314008 -0.18944,-0.651457 -0.18944,-1.012428 0,-0.360892 0.0559,-0.698395 0.16785,-1.012349 0.1119,-0.314008 0.27247,-0.586502 0.48178,-0.817483 0.20934,-0.238205 0.46382,-0.425926 0.76335,-0.563034 0.29956,-0.137186 0.63347,-0.205792 1.00156,-0.205792 0.3393,0 0.65513,0.06861 0.94747,0.205792 0.29236,0.137108 0.54684,0.324829 0.76335,0.563034 z m -1.71082,3.497315 c 0.0939,0 0.20394,-0.02159 0.3303,-0.06496 0.12631,-0.04326 0.2472,-0.126286 0.36269,-0.248999 0.11552,-0.122767 0.21294,-0.292339 0.29237,-0.508953 0.0794,-0.216508 0.11909,-0.498078 0.11909,-0.844576 0,-0.346499 -0.0397,-0.629762 -0.11909,-0.849974 -0.0794,-0.220107 -0.17685,-0.389758 -0.29237,-0.508873 -0.11549,-0.119089 -0.23638,-0.200316 -0.36269,-0.243602 -0.12636,-0.04334 -0.2364,-0.06501 -0.3303,-0.06501 -0.0938,0 -0.20392,0.02167 -0.33023,0.06501 -0.12629,0.04329 -0.2472,0.124513 -0.36269,0.243602 -0.11549,0.119115 -0.21294,0.288766 -0.29234,0.508873 -0.0794,0.220212 -0.11911,0.503475 -0.11911,0.849974 0,0.346498 0.0397,0.628068 0.11911,0.844576 0.0794,0.216614 0.17685,0.386186 0.29234,0.508953 0.11549,0.122713 0.2364,0.20574 0.36269,0.248999 0.12631,0.04337 0.23641,0.06496 0.33023,0.06496 z m 3.23752,-1.797367 c 0,-0.483685 0.0703,-0.878867 0.21113,-1.185678 0.14079,-0.306758 0.32303,-0.546761 0.54682,-0.72001 0.22373,-0.173249 0.47461,-0.290539 0.75247,-0.351896 0.27798,-0.06136 0.55404,-0.09202 0.82839,-0.09202 h 0.53054 c 0.0361,0.15158 0.0433,0.292338 0.0217,0.422248 -0.0145,0.108294 -0.0632,0.212937 -0.14616,0.314034 -0.083,0.101018 -0.21841,0.162375 -0.40605,0.184045 -0.12269,0.01439 -0.24368,0.04146 -0.36277,0.08123 -0.11912,0.03966 -0.22553,0.108214 -0.31943,0.205713 -0.0938,0.09742 -0.17137,0.236405 -0.23281,0.416851 -0.0613,0.180446 -0.092,0.422249 -0.092,0.725488 v 1.569958 c 0,0.216614 0.002,0.391663 0.005,0.525171 0.004,0.133562 0.009,0.240057 0.0163,0.319405 0.007,0.08663 0.0145,0.151659 0.0217,0.194945 -0.44035,0 -0.77965,-0.09205 -1.01783,-0.276092 -0.2382,-0.184124 -0.35732,-0.492681 -0.35732,-0.925804 z" />
    <path
       inkscape:connector-curvature="0"
       id="path26"
       style="fill:#00ab00;fill-rule:evenodd;stroke-width:0.26458332;fill-opacity:0.97983873"
       d="m -472.30999,58.135306 c -0.16987,-0.134408 -0.35378,-0.340889 -0.49028,-0.644181 -0.88709,-1.970934 -1.0701,-2.54971 -0.0511,-2.654618 0.76761,-0.07906 1.91527,-0.04471 2.66893,0.242174 l 0.0277,0.0072 c -0.69794,0.208942 -1.43129,0.384281 -2.17529,0.496279 l -0.39953,0.06006 0.0644,0.3987 c 0.001,0.008 0.14243,0.874951 0.35521,2.094389 z m -0.61815,-10.860829 c 0.22934,-0.142875 0.39518,0.03096 0.37957,0.264002 -0.008,0.124116 -0.14954,0.563853 -0.5778,0.677386 0,0 0.40876,-0.221986 0.39045,-0.64733 -0.004,-0.104537 -0.0929,-0.207222 -0.19222,-0.294058 z m 5.1639,-2.346166 c 0.99481,0 1.8243,0.707046 2.01361,1.646026 -0.35123,-0.798592 -1.12075,-1.352841 -2.01361,-1.352841 -0.89289,0 -1.6623,0.554249 -2.01361,1.352841 0.18931,-0.93898 1.01888,-1.646026 2.01361,-1.646026 z m 0,0.514667 c 0.85026,0 1.53953,0.68924 1.53953,1.539505 0,0.850212 -0.68927,1.539452 -1.53953,1.539452 -0.85021,0 -1.53945,-0.68924 -1.53945,-1.539452 0,-0.850265 0.68924,-1.539505 1.53945,-1.539505 z m -0.70959,9.057297 c 0.0285,-0.250799 0.0286,-0.516017 -0.002,-0.91141 -0.0515,-0.664343 -0.40013,-0.360601 -1.60506,-0.764831 -1.00659,-0.3379 -3.35889,-1.441212 -4.04911,-2.20808 -0.13621,-0.15158 -0.21503,-0.238575 -0.33954,-0.39714 -0.11557,-0.147055 -0.19177,-0.19095 -0.269,-0.305991 0.15817,-0.01749 0.31409,-0.02723 0.46754,-0.03029 0.0602,-0.0013 0.11999,-0.0013 0.17939,-7.94e-4 l 0.40696,0.581342 0.14978,-0.546999 c 0.57224,0.06257 1.09656,0.201771 1.55249,0.351313 0.22561,0.07403 0.45832,0.155549 0.69599,0.238496 l -0.0979,0.541655 0.70898,-0.331946 c 0.36735,0.122105 0.74205,0.236458 1.11691,0.323162 l 0.0524,0.523954 0.53213,-0.413914 c 0.41249,0.05797 0.82087,0.06945 1.2156,0.0075 l 0.10478,0.529272 0.60523,-0.732896 c 0.34868,-0.151225 0.68055,-0.380328 0.98776,-0.709522 -2.115,1.480423 -4.86225,-0.174149 -6.96444,-0.513134 -1.29741,-0.209259 -1.87783,-0.08393 -2.13728,0.06202 -0.58148,-0.32438 1.08405,-2.9355 1.4836,-3.436964 0.77668,-0.974752 3.47887,-0.710698 4.49826,-1.547839 1.06463,-0.87511 2.86141,0.169042 3.68326,0.909161 0.70215,0.632328 0.9171,1.624568 1.09575,2.515711 0.0973,0.485564 0.19965,0.975678 0.255,1.470978 0.19267,1.726115 -0.29612,2.306188 -0.71334,2.999714 l -0.002,-0.0013 -10e-4,7.93e-4 -0.001,-7.93e-4 -0.0734,0.04659 -0.13838,0.08527 c -0.006,0.0039 -1.41216,0.881301 -3.39825,1.666716 z m 5.99139,14.962558 c -0.0716,0.235824 -0.14092,0.569119 -0.19209,1.133555 -0.0292,0.32168 1.53466,0.02566 2.70182,0.08792 0.0819,0.0044 4.92405,0.273897 3.75113,-0.141526 -0.15669,-0.05551 -2.07174,-0.92964 -2.58122,-1.065239 -0.97883,-0.260614 -1.67609,-0.01185 -1.72125,-0.308028 -0.0733,-0.480218 0.15542,-1.18311 0.50025,-2.180404 -0.65797,0.724587 -1.56239,1.649624 -2.40448,2.424086 z m -4.58206,0.161264 c 0.0546,0.223494 0.1056,0.525515 0.1455,0.972291 0.0287,0.32168 -1.51191,0.02566 -2.6619,0.08792 -0.0806,0.0044 -4.85113,0.273897 -3.69554,-0.141526 0.15441,-0.05551 2.04105,-0.92964 2.54302,-1.065239 0.96427,-0.260614 1.65121,-0.01185 1.69574,-0.308028 0.065,-0.431535 -0.11038,-1.042881 -0.39322,-1.886082 0.62333,0.67011 1.40213,1.456796 2.13391,2.129764 0.0778,0.07154 0.15547,0.141896 0.23249,0.2109 z m 2.95614,-29.531391 c 6.7995,2.099919 7.269,9.024144 6.33367,15.426665 -0.54435,-0.09766 -1.08053,-0.226881 -1.59885,-0.375815 l 10e-4,-0.0074 c 0.84192,-5.524085 0.6203,-11.406699 -3.5173,-14.048352 -0.21069,-0.134487 -1.58896,-0.873389 -2.18964,-1.117282 -0.19987,-0.08115 -0.1074,-0.200925 0.97097,0.122184 z" />
    <path
       inkscape:connector-curvature="0"
       id="path28"
       style="fill:#000000;fill-rule:evenodd;stroke-width:0.26458332"
       d="m -468.26563,46.18323 c 0.24294,-6.09e-4 0.44093,0.409125 0.4422,0.915299 10e-4,0.506095 -0.19455,0.916861 -0.43746,0.917469 -0.24294,6.09e-4 -0.44093,-0.409125 -0.4422,-0.91522 -0.001,-0.506095 0.19455,-0.916887 0.43746,-0.917548 z m -0.0452,0.354885 c 0.0601,-1.32e-4 0.1092,0.101336 0.10952,0.226722 2.6e-4,0.125333 -0.0482,0.227118 -0.10838,0.22725 -0.0602,1.59e-4 -0.10922,-0.101309 -0.10951,-0.226721 -2.6e-4,-0.125333 0.0482,-0.227092 0.10837,-0.227251 z" />
    <path
       inkscape:connector-curvature="0"
       id="path30"
       style="fill:#aa0000;fill-rule:evenodd;stroke-width:0.26458332"
       d="m -464.87277,53.642946 c -0.80399,0.470693 -3.73584,2.090023 -6.93862,2.665359 0.2844,1.713812 1.431,8.488707 1.89397,9.183132 0.32949,0.494189 1.8183,2.097088 3.16222,3.33301 0.87556,0.805206 1.65015,1.439254 1.88947,1.439254 v 0.0013 h 0.006 v -0.0013 c 0.23932,0 1.01394,-0.634048 1.88947,-1.439254 1.34392,-1.235922 2.83276,-2.838821 3.16222,-3.33301 0.46299,-0.694425 1.60959,-7.46932 1.89399,-9.183132 -3.20281,-0.575336 -6.13463,-2.194586 -6.93864,-2.665359 l -0.0101,0.0065 z m 0.0101,14.525705 -0.003,1.58e-4 c -0.34152,0 -0.9774,-0.511201 -1.63063,-1.160489 -0.86865,-0.863336 -1.8456,-2.006706 -2.07052,-2.371196 -0.40719,-0.660003 -1.31575,-6.702372 -1.31836,-6.719702 l -0.0596,-0.390367 0.39155,-0.06368 c 2.30717,-0.375232 4.45757,-1.826022 4.46371,-1.830149 l 0.22484,-0.151712 0.002,0.0013 0.002,-0.0013 0.22492,0.151712 c 0.006,0.0041 2.15657,1.454917 4.46371,1.830149 l 0.39158,0.06368 -0.0596,0.390367 c -0.003,0.01733 -0.91117,6.059699 -1.31834,6.719702 -0.22492,0.36449 -1.20187,1.50786 -2.07052,2.371196 -0.65326,0.649288 -1.28902,1.160489 -1.63065,1.160489 z" />
    <path
       inkscape:connector-curvature="0"
       id="path32"
       style="fill:#000000;fill-rule:evenodd;stroke:#000000;stroke-width:0.26460978;stroke-linecap:butt;stroke-linejoin:miter;stroke-dasharray:none;fill-opacity:1;stroke-opacity:1"
       d="m -461.49071,58.596554 c -0.41116,1.071748 -0.792,2.052452 -1.14249,2.942246 -0.14835,0.384149 -0.29827,0.76499 -0.44993,1.142471 -0.15163,0.377481 -0.29323,0.727948 -0.42463,1.051507 -0.13149,0.323533 -0.24945,0.604943 -0.35393,0.84418 -0.10448,0.239342 -0.18367,0.409522 -0.2376,0.510619 -0.11453,0.215688 -0.24936,0.363961 -0.40441,0.444897 -0.15502,0.08086 -0.29991,0.128032 -0.43476,0.141526 -0.16846,0.02024 -0.33362,0.0034 -0.49538,-0.05056 l -2.80064,-7.026884 c 0.16176,-0.02693 0.32519,-0.03871 0.49035,-0.03532 0.16515,0.0034 0.3185,0.03029 0.46003,0.08083 0.14152,0.05056 0.27128,0.128112 0.38925,0.232596 0.11798,0.104457 0.21397,0.244342 0.28816,0.419549 0.007,0.02699 0.0388,0.112951 0.0961,0.257837 0.0573,0.144912 0.12803,0.326919 0.21233,0.545915 0.0842,0.219075 0.17693,0.463444 0.27802,0.733054 0.1011,0.269637 0.20559,0.542634 0.31343,0.818939 0.24937,0.653838 0.5325,1.385173 0.84929,2.194057 0.31006,-0.808884 0.5898,-1.540219 0.83917,-2.194057 0.10788,-0.276305 0.21233,-0.549302 0.31343,-0.818939 0.1011,-0.26961 0.19381,-0.513979 0.27802,-0.733054 0.0843,-0.218996 0.15505,-0.401003 0.21233,-0.545915 0.0573,-0.144886 0.0927,-0.230849 0.10621,-0.257837 0.0741,-0.175207 0.17018,-0.315092 0.28815,-0.419549 0.1179,-0.104484 0.24765,-0.182034 0.38926,-0.232596 0.14152,-0.05053 0.29316,-0.07747 0.45495,-0.08083 0.16177,-0.0034 0.32353,0.0084 0.48532,0.03532 z" />
  </g>
</svg>
