<?xml version="1.0" encoding="UTF-8" standalone="no"?>
<!-- Created with Inkscape (http://www.inkscape.org/) -->

<svg
   xmlns:dc="http://purl.org/dc/elements/1.1/"
   xmlns:cc="http://creativecommons.org/ns#"
   xmlns:rdf="http://www.w3.org/1999/02/22-rdf-syntax-ns#"
   xmlns:svg="http://www.w3.org/2000/svg"
   xmlns="http://www.w3.org/2000/svg"
   xmlns:sodipodi="http://sodipodi.sourceforge.net/DTD/sodipodi-0.dtd"
   xmlns:inkscape="http://www.inkscape.org/namespaces/inkscape"
   width="30.987652mm"
   height="36.669807mm"
   viewBox="0 0 30.987652 36.669807"
   version="1.1"
   id="svg4577"
   inkscape:version="0.92.4 (5da689c313, 2019-01-14)"
   sodipodi:docname="velo_small_white.svg">
  <defs
     id="defs4571" />
  <sodipodi:namedview
     id="base"
     pagecolor="#ffffff"
     bordercolor="#666666"
     borderopacity="1.0"
     inkscape:pageopacity="0.0"
     inkscape:pageshadow="2"
     inkscape:zoom="2.8"
     inkscape:cx="141.92396"
     inkscape:cy="84.904757"
     inkscape:document-units="mm"
     inkscape:current-layer="layer1"
     showgrid="false"
     fit-margin-top="0"
     fit-margin-left="0"
     fit-margin-right="0"
     fit-margin-bottom="0"
     inkscape:window-width="1920"
     inkscape:window-height="1026"
     inkscape:window-x="0"
     inkscape:window-y="25"
     inkscape:window-maximized="1" />
  <metadata
     id="metadata4574">
    <rdf:RDF>
      <cc:Work
         rdf:about="">
        <dc:format>image/svg+xml</dc:format>
        <dc:type
           rdf:resource="http://purl.org/dc/dcmitype/StillImage" />
        <dc:title></dc:title>
      </cc:Work>
    </rdf:RDF>
  </metadata>
  <g
     inkscape:label="Layer 1"
     inkscape:groupmode="layer"
     id="layer1"
     transform="translate(2.2824789,-23.19583)">
    <rect
       y="26.839235"
       x="1.3609265"
       height="29.382998"
       width="23.700842"
       id="rect5303"
       style="opacity:1;fill:#ffffff;fill-opacity:1;stroke:#ffffff;stroke-width:7.28681087;stroke-linecap:round;stroke-linejoin:round;stroke-miterlimit:0;stroke-dasharray:none;stroke-dashoffset:0;stroke-opacity:1;paint-order:fill markers stroke" />
  </g>
  <g
     inkscape:groupmode="layer"
     id="layer2"
     inkscape:label="Layer 2"
     transform="translate(55.408983,-9.4110419)">
    <g
       id="g5852"
       transform="matrix(0.26458333,0,0,0.26458333,-120.80388,-5.940911)">
      <path
         d="m 277.4656,137.2207 c -0.642,-0.508 -1.3371,-1.2884 -1.853,-2.4347 -3.3528,-7.4492 -4.0445,-9.6367 -0.1933,-10.0332 2.9012,-0.2988 7.2388,-0.169 10.0873,0.9153 l 0.1046,0.0272 c -2.6379,0.7897 -5.4096,1.4524 -8.2216,1.8757 l -1.51,0.227 0.2435,1.5069 c 0.005,0.0301 0.5383,3.3069 1.3425,7.9158 z m -2.3363,-41.0488 c 0.8668,-0.54 1.4936,0.117 1.4346,0.9978 -0.0315,0.4691 -0.5652,2.1311 -2.1838,2.5602 0,0 1.5449,-0.839 1.4757,-2.4466 -0.017,-0.3951 -0.3512,-0.7832 -0.7265,-1.1114 z m 19.5171,-8.8674 c 3.7599,0 6.895,2.6723 7.6105,6.2212 -1.3275,-3.0183 -4.2359,-5.1131 -7.6105,-5.1131 -3.3747,0 -6.2827,2.0948 -7.6105,5.1131 0.7155,-3.5489 3.8509,-6.2212 7.6105,-6.2212 z m 0,1.9452 c 3.2136,0 5.8187,2.605 5.8187,5.8186 0,3.2134 -2.6051,5.8184 -5.8187,5.8184 -3.2134,0 -5.8184,-2.605 -5.8184,-5.8184 0,-3.2136 2.605,-5.8186 5.8184,-5.8186 z m -2.6819,34.2323 c 0.1078,-0.9479 0.108,-1.9503 -0.008,-3.4447 -0.1947,-2.5109 -1.5123,-1.3629 -6.0664,-2.8907 -3.8044,-1.2771 -12.695,-5.4471 -15.3037,-8.3455 -0.5148,-0.5729 -0.8127,-0.9017 -1.2833,-1.501 -0.4368,-0.5558 -0.7248,-0.7217 -1.0167,-1.1565 0.5978,-0.0661 1.1871,-0.1029 1.7671,-0.1145 0.2276,-0.005 0.4535,-0.005 0.678,-0.003 l 1.5381,2.1972 0.5661,-2.0674 c 2.1628,0.2365 4.1445,0.7626 5.8677,1.3278 0.8527,0.2798 1.7322,0.5879 2.6305,0.9014 l -0.3699,2.0472 2.6796,-1.2546 c 1.3884,0.4615 2.8046,0.8937 4.2214,1.2214 l 0.1981,1.9803 2.0112,-1.5644 c 1.559,0.2191 3.1025,0.2625 4.5944,0.0283 l 0.396,2.0004 2.2875,-2.77 c 1.3179,-0.5715 2.5722,-1.4374 3.7333,-2.6816 -7.9937,5.5953 -18.377,-0.6582 -26.3223,-1.9394 -4.9036,-0.7909 -7.0973,-0.3172 -8.0779,0.2344 -2.1977,-1.226 4.0972,-11.0948 5.6073,-12.9901 2.9355,-3.6841 13.1485,-2.6861 17.0013,-5.8501 4.0238,-3.3075 10.8148,0.6389 13.921,3.4362 2.6538,2.3899 3.4662,6.1401 4.1414,9.5082 0.3679,1.8352 0.7546,3.6876 0.9638,5.5596 0.7282,6.5239 -1.1192,8.7163 -2.6961,11.3375 l -0.007,-0.005 -0.004,0.003 -0.004,-0.003 -0.2775,0.1761 -0.523,0.3223 c -0.0241,0.0147 -5.3373,3.3309 -12.8438,6.2994 z m 22.6446,56.5514 c -0.2707,0.8913 -0.5326,2.151 -0.726,4.2843 -0.1102,1.2158 5.8003,0.097 10.2116,0.3323 0.3095,0.0167 18.6106,1.0352 14.1775,-0.5349 -0.5922,-0.2098 -7.8302,-3.5136 -9.7558,-4.0261 -3.6995,-0.985 -6.3348,-0.0448 -6.5055,-1.1642 -0.2772,-1.815 0.5874,-4.4716 1.8907,-8.2409 -2.4868,2.7386 -5.9051,6.2348 -9.0878,9.1619 z m -17.318,0.6095 c 0.2064,0.8447 0.3991,1.9862 0.5499,3.6748 0.1086,1.2158 -5.7143,0.097 -10.0607,0.3323 -0.3047,0.0167 -18.335,1.0352 -13.9674,-0.5349 0.5836,-0.2098 7.7142,-3.5136 9.6114,-4.0261 3.6445,-0.985 6.2408,-0.0448 6.4091,-1.1642 0.2455,-1.631 -0.4172,-3.9416 -1.4862,-7.1285 2.3559,2.5327 5.2994,5.506 8.0652,8.0495 0.2942,0.2704 0.5876,0.5363 0.8787,0.7971 z M 308.4639,69.0282 c 25.6989,7.9367 27.4734,34.107 23.9383,58.3055 -2.0574,-0.3691 -4.0839,-0.8575 -6.0429,-1.4204 l 0.004,-0.0281 c 3.1822,-20.8783 2.3446,-43.1118 -13.2936,-53.096 -0.7963,-0.5083 -6.0055,-3.301 -8.2758,-4.2228 -0.7554,-0.3067 -0.4059,-0.7594 3.6698,0.4618 z"
         style="fill:#14de57;fill-rule:evenodd"
         id="path34"
         inkscape:connector-curvature="0" />
      <path
         d="m 292.7514,92.0475 c 0.9182,-0.0023 1.6665,1.5463 1.6713,3.4594 0.005,1.9128 -0.7353,3.4653 -1.6534,3.4676 -0.9182,0.0023 -1.6665,-1.5463 -1.6713,-3.4591 -0.005,-1.9128 0.7353,-3.4654 1.6534,-3.4679 z m -0.1709,1.3413 c 0.2273,-5e-4 0.4127,0.383 0.4139,0.8569 0.001,0.4737 -0.1823,0.8584 -0.4096,0.8589 -0.2274,6e-4 -0.4128,-0.3829 -0.4139,-0.8569 -0.001,-0.4737 0.182,-0.8583 0.4096,-0.8589 z"
         style="fill:#14de57;fill-rule:evenodd"
         id="path36"
         inkscape:connector-curvature="0" />
      <path
         d="m 305.5748,120.2417 c -3.0387,1.779 -14.1197,7.8993 -26.2247,10.0738 1.0749,6.4774 5.4085,32.0833 7.1583,34.7079 1.2453,1.8678 6.8723,7.926 11.9517,12.5972 3.3092,3.0433 6.2368,5.4397 7.1413,5.4397 v 0.005 h 0.0233 v -0.005 c 0.9045,0 3.8322,-2.3964 7.1413,-5.4397 5.0794,-4.6712 10.7065,-10.7294 11.9517,-12.5972 1.7499,-2.6246 6.0835,-28.2305 7.1584,-34.7079 -12.1051,-2.1745 -23.186,-8.2945 -26.2248,-10.0738 l -0.0382,0.0244 z m 0.0383,54.9003 -0.0117,6e-4 c -1.2908,0 -3.6941,-1.9321 -6.163,-4.3861 -3.2831,-3.263 -6.9755,-7.5844 -7.8256,-8.962 -1.539,-2.4945 -4.9729,-25.3318 -4.9828,-25.3973 l -0.2253,-1.4754 1.4799,-0.2407 c 8.72,-1.4182 16.8475,-6.9015 16.8707,-6.9171 l 0.8498,-0.5734 0.008,0.005 0.008,-0.005 0.8501,0.5734 c 0.0233,0.0156 8.1508,5.4989 16.8707,6.9171 l 1.48,0.2407 -0.2254,1.4754 c -0.01,0.0655 -3.4438,22.9028 -4.9827,25.3973 -0.8501,1.3776 -4.5425,5.699 -7.8256,8.962 -2.469,2.454 -4.8719,4.3861 -6.1631,4.3861 z"
         style="fill:#ff8400;fill-rule:evenodd"
         id="path38"
         inkscape:connector-curvature="0" />
      <path
         d="m 318.3574,138.964 c -1.554,4.0507 -2.9934,7.7573 -4.3181,11.1203 -0.5607,1.4519 -1.1273,2.8913 -1.7005,4.318 -0.5731,1.4267 -1.1083,2.7513 -1.6049,3.9742 -0.497,1.2228 -0.9428,2.2864 -1.3377,3.1906 -0.3949,0.9046 -0.6942,1.5478 -0.898,1.9299 -0.4329,0.8152 -0.9425,1.3756 -1.5285,1.6815 -0.5859,0.3056 -1.1335,0.4839 -1.6432,0.5349 -0.6367,0.0765 -1.2609,0.0127 -1.8723,-0.1911 L 292.8691,138.964 c 0.6114,-0.1018 1.2291,-0.1463 1.8533,-0.1335 0.6242,0.0127 1.2038,0.1145 1.7387,0.3055 0.5349,0.1911 1.0253,0.4842 1.4712,0.8791 0.4459,0.3948 0.8087,0.9235 1.0891,1.5857 0.0255,0.102 0.1465,0.4269 0.3631,0.9745 0.2166,0.5477 0.4839,1.2356 0.8025,2.0633 0.3183,0.828 0.6687,1.7516 1.0508,2.7706 0.3821,1.0191 0.777,2.0509 1.1846,3.0952 0.9425,2.4712 2.0126,5.2353 3.2099,8.2925 1.1719,-3.0572 2.2292,-5.8213 3.1717,-8.2925 0.4077,-1.0443 0.8025,-2.0761 1.1846,-3.0952 0.3821,-1.019 0.7325,-1.9426 1.0508,-2.7706 0.3186,-0.8277 0.586,-1.5156 0.8025,-2.0633 0.2166,-0.5476 0.3504,-0.8725 0.4014,-0.9745 0.2801,-0.6622 0.6432,-1.1909 1.0891,-1.5857 0.4456,-0.3949 0.936,-0.688 1.4712,-0.8791 0.5349,-0.191 1.108,-0.2928 1.7195,-0.3055 0.6114,-0.0128 1.2228,0.0317 1.8343,0.1335 z"
         style="fill:#14de57;fill-rule:evenodd;stroke:#14de57;stroke-width:1.00010002;stroke-linecap:butt;stroke-linejoin:miter;stroke-dasharray:none"
         id="path40"
         inkscape:connector-curvature="0" />
    </g>
  </g>
</svg>
