<?xml version="1.0" encoding="UTF-8" standalone="no"?>
<svg
   xmlns:dc="http://purl.org/dc/elements/1.1/"
   xmlns:cc="http://creativecommons.org/ns#"
   xmlns:rdf="http://www.w3.org/1999/02/22-rdf-syntax-ns#"
   xmlns:svg="http://www.w3.org/2000/svg"
   xmlns="http://www.w3.org/2000/svg"
   xmlns:sodipodi="http://sodipodi.sourceforge.net/DTD/sodipodi-0.dtd"
   xmlns:inkscape="http://www.inkscape.org/namespaces/inkscape"
   version="1.1"
   width="309.83154"
   height="116.76579"
   id="svg35"
   viewBox="0 0 309.83155 116.76579"
   sodipodi:docname="velo_word_on_side.svg"
   inkscape:version="0.92.4 (5da689c313, 2019-01-14)">
  <metadata
     id="metadata39">
    <rdf:RDF>
      <cc:Work
         rdf:about="">
        <dc:format>image/svg+xml</dc:format>
        <dc:type
           rdf:resource="http://purl.org/dc/dcmitype/StillImage" />
        <dc:title></dc:title>
      </cc:Work>
    </rdf:RDF>
  </metadata>
  <sodipodi:namedview
     pagecolor="#ffffff"
     bordercolor="#666666"
     borderopacity="1"
     objecttolerance="10"
     gridtolerance="10"
     guidetolerance="10"
     inkscape:pageopacity="0"
     inkscape:pageshadow="2"
     inkscape:window-width="1670"
     inkscape:window-height="884"
     id="namedview37"
     showgrid="false"
     inkscape:snap-bbox="true"
     inkscape:snap-global="false"
     inkscape:zoom="3.2435385"
     inkscape:cx="159.62207"
     inkscape:cy="28.788934"
     inkscape:window-x="0"
     inkscape:window-y="25"
     inkscape:window-maximized="1"
     inkscape:current-layer="svg35"
     fit-margin-top="0"
     fit-margin-left="0"
     fit-margin-right="0"
     fit-margin-bottom="0" />
  <defs
     id="defs9">
    <radialGradient
       id="grad1"
       cx="0.50999999"
       cy="0.50999999"
       r="1">
      <stop
         offset="0%"
         stop-color="#000000"
         stop-opacity="1.0000"
         id="stop4" />
      <stop
         offset="100%"
         stop-color="#000000"
         stop-opacity="1.0000"
         id="stop6" />
    </radialGradient>
  </defs>
  <g
     inkscape:groupmode="layer"
     id="layer4"
     inkscape:label="Layer 2"
     transform="translate(-266.22447,-380.39082)">
    <path
       inkscape:connector-curvature="0"
       id="path19-2"
       style="fill:#ffffff;fill-rule:evenodd;stroke-width:0.9004038"
       d="m 305.78538,435.31366 c -2.66466,1.64473 -12.38168,7.30312 -22.99665,9.31352 0.94258,5.98854 4.74275,29.66193 6.27717,32.08845 1.09201,1.72683 6.02637,7.32781 10.48055,11.64647 2.90186,2.81362 5.4691,5.02916 6.26226,5.02916 v 0.005 h 0.0205 v -0.005 c 0.79317,0 3.36049,-2.21554 6.26227,-5.02916 4.45416,-4.31866 9.38862,-9.91964 10.48054,-11.64647 1.5345,-2.42652 5.33467,-26.09991 6.27726,-32.08845 -10.61506,-2.0104 -20.332,-7.66851 -22.99675,-9.31352 l -0.0335,0.0226 z"
       sodipodi:nodetypes="cccccccccccccc" />
    <ellipse
       style="opacity:1;fill:#ffffff;fill-opacity:1;stroke:#ffffff;stroke-width:2.17940807;stroke-linecap:round;stroke-linejoin:round;stroke-miterlimit:0;stroke-dasharray:none;stroke-dashoffset:0;stroke-opacity:1;paint-order:fill markers stroke"
       id="path7831"
       cx="294.62421"
       cy="407.13394"
       rx="4.8441763"
       ry="5.0561366" />
  </g>
  <path
     inkscape:connector-curvature="0"
     id="path13"
     style="fill:#00ab00;fill-opacity:1;fill-rule:evenodd;stroke-width:1.10667658"
     d="m 112.95339,70.894716 c -1.84173,4.800542 -3.54768,9.193716 -5.11772,13.179301 -0.66412,1.720993 -1.33609,3.426824 -2.01526,5.117384 -0.6795,1.690891 -1.31351,3.260933 -1.90237,4.710237 -0.58876,1.449414 -1.11708,2.709808 -1.5851,3.781735 -0.46801,1.071596 -0.82281,1.834207 -1.0644,2.286948 -0.51316,0.966129 -1.11708,1.630579 -1.811301,1.992899 -0.69455,0.36233 -1.34361,0.57348 -1.94753,0.63402 -0.75508,0.0906 -1.49478,0.0151 -2.21944,-0.22654 L 82.745319,70.894716 c 0.72465,-0.120849 1.45683,-0.173859 2.19653,-0.158476 0.7397,0.01505 1.42673,0.135789 2.06074,0.362326 0.63402,0.226205 1.21525,0.57348 1.74357,1.041493 0.52822,0.468014 0.95861,1.094503 1.29083,1.879359 0.0301,0.120849 0.17353,0.506083 0.43017,1.155149 0.25652,0.649065 0.5737,1.464354 0.95107,2.445644 0.37738,0.98118 0.79238,2.075683 1.24546,3.28351 0.45296,1.207384 0.92097,2.430262 1.40382,3.668411 1.11741,2.928709 2.38533,6.204472 3.80453,9.827731 1.38877,-3.623259 2.641751,-6.899022 3.758831,-9.827731 0.48306,-1.238149 0.95119,-2.461027 1.40415,-3.668411 0.45263,-1.207827 0.86796,-2.30233 1.24534,-3.28351 0.37749,-0.98129 0.69455,-1.796579 0.95119,-2.445644 0.25664,-0.649066 0.415,-1.0343 0.47554,-1.155149 0.33189,-0.784856 0.76239,-1.411345 1.29061,-1.879359 0.52832,-0.468013 1.10955,-0.815288 1.74356,-1.041493 0.63435,-0.226537 1.31352,-0.347275 2.03817,-0.362326 0.72465,-0.01538 1.4493,0.03763 2.17396,0.158476 z m 14.03952,27.082922 c 0.36232,0.211486 0.7096,0.573812 1.04182,1.086979 l 0.13579,0.135789 -0.13579,0.1359 c -0.99634,1.086974 -2.18159,1.939894 -3.55531,2.558854 -1.3736,0.61897 -2.86065,0.92862 -4.46112,0.92862 -1.38877,0 -2.69476,-0.27955 -3.91753,-0.83798 -1.22287,-0.55865 -2.30199,-1.33598 -3.23802,-2.33232 -0.9057,-0.96624 -1.62283,-2.105896 -2.15138,-3.419411 -0.52833,-1.313514 -0.79249,-2.724859 -0.79249,-4.234698 0,-1.509507 0.23406,-2.921183 0.70207,-4.234366 0.46813,-1.313514 1.13977,-2.468221 2.01526,-3.464894 0.87561,-0.966128 1.94001,-1.735933 3.19288,-2.309412 1.25297,-0.573812 2.6496,-0.860774 4.18921,-0.860774 0.84539,0 1.774,0.128596 2.78539,0.385124 1.0114,0.256638 1.95495,0.664117 2.83055,1.222878 0.87549,0.558429 1.60014,1.290606 2.17396,2.196531 0.5737,0.905704 0.86044,1.992682 0.86044,3.260602 0,1.237928 -0.31684,2.242126 -0.95108,3.011931 -0.63402,0.769804 -1.38877,1.373717 -2.26437,1.811629 -0.87549,0.43758 -1.80411,0.739703 -2.7854,0.905704 -0.98118,0.165891 -1.8342,0.249003 -2.55885,0.249003 -1.11708,0 -2.09085,-0.06806 -2.92119,-0.20385 -0.83012,-0.1359 -1.39629,-0.234062 -1.69841,-0.294265 0.12084,1.086977 0.36232,1.969995 0.72465,2.649494 0.36232,0.679167 0.77013,1.215352 1.22288,1.60778 0.45296,0.392427 0.90592,0.656591 1.35866,0.792381 0.45296,0.1359 0.86044,0.203961 1.22277,0.203961 0.63435,0 1.23815,-0.06054 1.81163,-0.181384 0.57381,-0.120739 1.08698,-0.25664 1.53994,-0.40748 0.45307,-0.15084 0.88313,-0.301791 1.29061,-0.452963 0.40781,-0.15095 0.80776,-0.226204 1.20019,-0.226204 0.42297,0 0.80034,0.105355 1.13224,0.316841 z M 120.0183,84.979611 c -0.33189,0.0301 -0.72432,0.113323 -1.17728,0.249113 -0.45308,0.135789 -0.89818,0.384902 -1.33609,0.747228 -0.43792,0.362326 -0.83798,0.875602 -1.20031,1.53994 -0.36232,0.664117 -0.61885,1.509618 -0.7698,2.53606 0.48318,0.151172 1.16987,0.294487 2.06074,0.430387 0.89066,0.135789 1.7812,0.158365 2.67185,0.06773 0.89088,-0.0903 1.67573,-0.346943 2.35523,-0.769804 0.67917,-0.422529 1.04902,-1.13213 1.10956,-2.128471 0.0603,-0.754753 -0.23396,-1.404151 -0.88302,-1.947529 -0.6494,-0.5436 -1.59273,-0.785187 -2.83088,-0.724652 z m 21.33119,13.315201 c 0.0605,0.784856 0,1.494457 -0.18094,2.128468 -0.15095,0.5436 -0.45307,1.06441 -0.90604,1.56252 -0.45263,0.49823 -1.16223,0.77744 -2.12847,0.83798 -0.93603,0.0903 -1.75109,-0.008 -2.44564,-0.2946 -0.69455,-0.28674 -1.27545,-0.68669 -1.74357,-1.20019 -0.46802,-0.51328 -0.81529,-1.11719 -1.04183,-1.81141 -0.22642,-0.69455 -0.33975,-1.419203 -0.33975,-2.173957 V 75.28778 c -0.0301,-0.906037 -0.0527,-1.638214 -0.0677,-2.196532 -0.0151,-0.558761 -0.0376,-1.003866 -0.0681,-1.336091 -0.0301,-0.362326 -0.0602,-0.649066 -0.0903,-0.860441 1.87183,0 3.30608,0.392428 4.30243,1.177283 0.99634,0.785187 1.49445,2.068268 1.49445,3.849796 v 20.878229 c 0,0.724652 0.13579,1.245675 0.40748,1.562516 0.27202,0.317175 0.58886,0.505753 0.95119,0.566288 0.36232,0.0602 0.72465,0.02258 1.08698,-0.113324 0.36232,-0.135789 0.61896,-0.309538 0.7698,-0.520692 z m 20.24455,-13.949216 c 0.93613,0.966239 1.66831,2.105895 2.19653,3.419409 0.52833,1.313183 0.79249,2.724859 0.79249,4.234366 0,1.509839 -0.24159,2.921184 -0.72465,4.234698 -0.48318,1.313515 -1.16234,2.453171 -2.03784,3.419411 -0.8756,0.99634 -1.94,1.7812 -3.19287,2.3549 -1.25331,0.57381 -2.6496,0.86055 -4.18954,0.86055 -1.38877,0 -2.69465,-0.28674 -3.91753,-0.86055 -1.22277,-0.5737 -2.302,-1.35856 -3.23802,-2.3549 -0.90571,-0.96624 -1.62284,-2.105896 -2.15138,-3.419411 -0.52833,-1.313514 -0.79238,-2.724859 -0.79238,-4.234698 0,-1.509507 0.23395,-2.921183 0.70196,-4.234366 0.46812,-1.313514 1.13977,-2.45317 2.01526,-3.419409 0.8756,-0.996231 1.94,-1.781418 3.19287,-2.354897 1.25298,-0.573812 2.64961,-0.860774 4.18922,-0.860774 1.4192,0 2.74024,0.286962 3.963,0.860774 1.22288,0.573479 2.28728,1.358666 3.19288,2.354897 z m -7.15588,14.628384 c 0.39275,0 0.85302,-0.09041 1.38157,-0.271689 0.52822,-0.181053 1.03397,-0.528218 1.51703,-1.041494 0.48318,-0.513498 0.89066,-1.222767 1.22288,-2.128803 0.33222,-0.905705 0.49812,-2.083319 0.49812,-3.532623 0,-1.449304 -0.1659,-2.634112 -0.49812,-3.555198 -0.33222,-0.920755 -0.7397,-1.630356 -1.22288,-2.128472 -0.48306,-0.498115 -0.98881,-0.837864 -1.51703,-1.018917 -0.52855,-0.181273 -0.98882,-0.272021 -1.38157,-0.272021 -0.39243,0 -0.85292,0.09075 -1.38125,0.272021 -0.52821,0.181053 -1.03397,0.520802 -1.51703,1.018917 -0.48318,0.498116 -0.89065,1.207717 -1.22288,2.128472 -0.33222,0.921086 -0.49811,2.105894 -0.49811,3.555198 0,1.449304 0.16589,2.626918 0.49811,3.532623 0.33223,0.906036 0.7397,1.615305 1.22288,2.128803 0.48306,0.513276 0.98882,0.860441 1.51703,1.041494 0.52833,0.181274 0.98882,0.271689 1.38125,0.271689 z m 23.41451,-13.994369 c -0.39243,0 -0.85292,0.09075 -1.38125,0.271689 -0.52821,0.181384 -1.03397,0.520802 -1.51703,1.018917 -0.48306,0.498447 -0.89065,1.207716 -1.22277,2.128803 -0.33222,0.920755 -0.49822,2.105895 -0.49822,3.555199 0,1.449303 0.166,2.634222 0.49822,3.555198 0.33212,0.920755 0.73971,1.630356 1.22277,2.128472 0.48306,0.498225 0.98882,0.837864 1.51703,1.01925 0.52833,0.180941 0.98882,0.271689 1.38125,0.271689 0.63434,0 1.23826,-0.06054 1.81163,-0.181384 0.57381,-0.120739 1.08697,-0.25664 1.54005,-0.40748 0.45296,-0.181052 0.88301,-0.33975 1.29049,-0.475539 0.40781,-0.1359 0.80788,-0.203628 1.2003,-0.203628 0.39243,0 0.78519,0.105355 1.17762,0.316841 0.33222,0.211486 0.67917,0.558761 1.04149,1.041827 l 0.0906,0.180941 -0.13579,0.1359 c -0.99634,1.086974 -2.18148,1.939894 -3.5552,2.558854 -1.37372,0.61897 -2.8456,0.92862 -4.41575,0.92862 -1.4192,0 -2.74013,-0.28708 -3.96301,-0.86056 -1.22277,-0.5737 -2.30189,-1.34361 -3.23802,-2.30974 -0.90571,-0.96624 -1.62283,-2.105896 -2.15138,-3.419411 -0.52833,-1.313514 -0.79238,-2.724859 -0.79238,-4.234698 0,-1.509507 0.24147,-2.921183 0.72465,-4.234366 0.48306,-1.313514 1.16223,-2.468221 2.03805,-3.464894 0.87561,-0.966128 1.93215,-1.735933 3.16997,-2.309412 1.23826,-0.573812 2.62703,-0.860774 4.16664,-0.860774 1.60058,0 3.08751,0.309538 4.46123,0.928502 1.37372,0.618964 2.55886,1.47188 3.5552,2.558858 l 0.13579,0.1359 -0.13579,0.181273 c -0.33223,0.543379 -0.6795,0.890654 -1.04183,1.041494 -0.39242,0.241587 -0.7698,0.347275 -1.13213,0.317173 -0.39242,0 -0.79249,-0.06806 -1.2003,-0.20396 -0.40748,-0.13579 -0.83753,-0.279104 -1.29049,-0.430387 -0.45308,-0.180941 -0.96624,-0.339418 -1.54005,-0.475207 -0.57337,-0.136121 -1.17729,-0.20396 -1.81163,-0.20396 z m 16.93846,-10.054157 c -0.63435,1.056544 -1.50984,1.585093 -2.62692,1.585093 -0.48318,0 -0.93581,-0.105688 -1.35867,-0.317063 -0.45296,-0.271689 -0.80002,-0.62649 -1.04149,-1.064402 -0.24159,-0.43769 -0.36233,-0.913229 -0.36233,-1.426506 0,-0.573701 0.13579,-1.086978 0.40748,-1.53994 0.27169,-0.513166 0.64907,-0.913119 1.13213,-1.200191 0.48317,-0.28674 0.98129,-0.430055 1.49446,-0.430055 0.45307,0 0.89098,0.120739 1.31351,0.362326 0.48306,0.241477 0.84539,0.588752 1.08698,1.041493 0.24159,0.452963 0.36232,0.936028 0.36232,1.449304 0,0.5436 -0.13578,1.056876 -0.40747,1.539941 z m 3.53262,23.369358 c -0.15117,0.211154 -0.40781,0.384903 -0.77014,0.520692 -0.36232,0.1359 -0.72465,0.173527 -1.08698,0.113324 -0.36232,-0.06054 -0.67916,-0.249113 -0.95085,-0.566288 -0.27202,-0.316841 -0.40781,-0.837864 -0.40781,-1.562516 V 85.975952 c 0,-0.905594 0.008,-1.637882 0.0226,-2.196532 0.0154,-0.558429 0.038,-1.003866 0.0681,-1.336091 0.0301,-0.362326 0.0605,-0.649066 0.0906,-0.860441 -1.87216,0 -3.29103,0.392428 -4.25727,1.177615 -0.96613,0.784855 -1.44931,2.083319 -1.44931,3.894948 l -0.0452,10.688172 c 0,0.754754 0.11321,1.479407 0.33975,2.173957 0.22621,0.69422 0.57348,1.29813 1.04149,1.81141 0.46802,0.5135 1.04935,0.91345 1.74357,1.20019 0.69455,0.28707 1.50984,0.3849 2.44565,0.2946 0.96624,-0.0605 1.67584,-0.33975 2.1288,-0.83798 0.45263,-0.49811 0.75475,-1.01892 0.90559,-1.56252 0.18139,-0.634011 0.24159,-1.343612 0.18139,-2.128468 z m 2.30974,-6.838708 c 0,-2.023116 0.29427,-3.676048 0.88313,-4.95935 0.58886,-1.283081 1.35114,-2.286948 2.28717,-3.011599 0.93581,-0.724652 1.98516,-1.215242 3.14739,-1.47188 1.16267,-0.256639 2.31738,-0.384902 3.46489,-0.384902 h 2.21911 c 0.15095,0.634015 0.18105,1.222767 0.0906,1.766145 -0.0605,0.452963 -0.26439,0.890542 -0.61133,1.313514 -0.34728,0.422529 -0.91356,0.679168 -1.69842,0.769805 -0.51327,0.0602 -1.01925,0.173416 -1.51736,0.339749 -0.49823,0.165891 -0.94333,0.452631 -1.33609,0.860441 -0.39243,0.407479 -0.7168,0.988816 -0.97377,1.743569 -0.25653,0.754754 -0.3849,1.766146 -0.3849,3.034508 v 6.566687 c 0,0.906037 0.008,1.638214 0.0226,2.196529 0.0154,0.55876 0.038,1.0042 0.0681,1.33609 0.0302,0.36233 0.0605,0.63435 0.0907,0.81529 -1.84184,0 -3.26104,-0.3849 -4.25727,-1.1547 -0.99634,-0.77014 -1.49457,-2.060746 -1.49457,-3.872377 z m 16.89298,-0.634015 c 0.81496,-0.513609 1.73604,-0.898511 2.76249,-1.155039 1.02677,-0.256638 2.09836,-0.385013 3.21578,-0.385013 1.56971,0 3.0646,0.226537 4.48348,0.6795 -0.0904,-0.936027 -0.28674,-1.766477 -0.58887,-2.491129 -0.39243,-0.935695 -0.98129,-1.615195 -1.76614,-2.037724 -0.30179,-0.151283 -0.62649,-0.264496 -0.97377,-0.33975 -0.34727,-0.0757 -0.74723,-0.113323 -1.20019,-0.113323 h -0.49822 c -0.42253,0.0301 -0.84539,0.09827 -1.26792,0.20396 -0.42286,0.105356 -0.8455,0.23373 -1.26837,0.384902 -0.42252,0.15084 -0.84505,0.279215 -1.26792,0.384902 -0.42263,0.105688 -0.83045,0.158477 -1.22287,0.158477 -0.42253,0 -0.83034,-0.09075 -1.22277,-0.27169 -0.36233,-0.211485 -0.67917,-0.558761 -0.95119,-1.041825 l -0.0903,-0.181052 0.0903,-0.135789 c 0.90604,-0.96624 1.97011,-1.743569 3.19287,-2.332432 1.22288,-0.588752 2.55886,-0.928502 4.00817,-1.019139 0.15095,-0.03021 0.27921,-0.04526 0.38501,-0.04526 0.10569,0 0.23395,0 0.3849,0 1.38899,0 2.65702,0.249113 3.80453,0.747228 1.1473,0.498226 2.14353,1.185251 2.98903,2.060743 1.72099,1.871943 2.61153,4.332639 2.67207,7.382086 v 0.362326 c 0,3.140195 -0.80024,5.691527 -2.40038,7.654109 -0.78497,0.966123 -1.72852,1.751093 -2.83055,2.354893 -1.10214,0.60391 -2.33243,0.98129 -3.6911,1.13224 -0.18127,0.0304 -0.36233,0.0455 -0.5436,0.0455 -0.18105,0 -0.37738,0 -0.58853,0 -0.63435,0 -1.29846,-0.053 -1.99301,-0.15881 -0.69422,-0.10536 -1.37372,-0.30932 -2.03773,-0.61133 -0.69455,-0.27169 -1.32856,-0.62649 -1.90237,-1.06418 -0.57348,-0.43791 -1.05655,-1.003753 -1.44931,-1.698303 -0.57348,-0.875604 -0.87549,-1.947531 -0.90559,-3.21545 v -0.272021 c 0,-1.177394 0.24148,-2.158573 0.72465,-2.94376 0.42253,-0.784966 1.07193,-1.464465 1.94742,-2.037834 z m 9.37477,2.173623 c -0.39254,-0.0602 -0.83765,-0.120738 -1.33609,-0.181052 -0.49823,-0.06054 -1.00387,-0.09064 -1.51715,-0.09064 -0.42253,0 -0.83034,0.02258 -1.22276,0.06806 -0.39243,0.04526 -0.75476,0.128374 -1.08698,0.249113 -0.75475,0.241587 -1.32857,0.618964 -1.72099,1.13213 -0.15084,0.181384 -0.27169,0.384902 -0.36233,0.611439 -0.0906,0.226536 -0.15084,0.475538 -0.18094,0.747228 -0.0304,0.09064 -0.0455,0.226536 -0.0455,0.407478 0,0.302123 0.0455,0.626822 0.13579,0.973765 0.0906,0.347275 0.27202,0.671974 0.5436,0.973764 0.24159,0.302123 0.59639,0.558651 1.0644,0.770138 0.4678,0.211154 1.09451,0.316841 1.87947,0.316841 0.24148,0 0.42253,-0.01505 0.54327,-0.04515 0.8455,-0.0301 1.5852,-0.271689 2.21922,-0.724653 0.30201,-0.181384 0.55865,-0.400064 0.77014,-0.656591 0.21137,-0.256971 0.39242,-0.536185 0.54326,-0.837976 0.33223,-0.573701 0.55876,-1.162564 0.6795,-1.766477 0.12074,-0.603803 0.18106,-1.162232 0.18106,-1.675398 -0.0301,0 -0.0528,-0.0077 -0.0678,-0.02291 -0.0151,-0.01505 -0.038,-0.02258 -0.0681,-0.02258 -0.12074,-0.03021 -0.25653,-0.06031 -0.40748,-0.09042 -0.15084,-0.03043 -0.33223,-0.07559 -0.5436,-0.136121 z m 8.87687,-0.996341 c 0,-1.509507 0.26405,-2.921183 0.79238,-4.234366 0.52855,-1.313514 1.24535,-2.45317 2.15138,-3.419409 0.90571,-0.996231 1.97,-1.781418 3.19287,-2.354897 1.22277,-0.573812 2.54381,-0.860774 3.96268,-0.860774 1.53994,0 2.93624,0.286962 4.18955,0.860774 1.25287,0.573479 2.31705,1.358666 3.19287,2.354897 0.87549,0.966239 1.55466,2.105895 2.03783,3.419409 0.48307,1.313183 0.72466,2.724859 0.72466,4.234366 0,1.509839 -0.26417,2.921184 -0.7925,4.234698 -0.52854,1.313515 -1.26072,2.453171 -2.19653,3.419411 -0.90592,0.99634 -1.96999,1.7812 -3.19287,2.3549 -1.22277,0.57381 -2.54381,0.86055 -3.96301,0.86055 -1.72099,0 -3.24555,-0.34728 -4.57411,-1.04149 l 0.0451,6.88386 c 0,0.9057 0.008,1.6454 0.0226,2.21921 0.0154,0.57371 0.038,1.02634 0.0682,1.35856 0.0301,0.36233 0.0605,0.63402 0.0906,0.8154 -1.87216,0 -3.29867,-0.39276 -4.27985,-1.17773 -0.98129,-0.78485 -1.47188,-2.08331 -1.47188,-3.89494 z m 10.09931,6.974609 c 0.39276,0 0.85303,-0.09041 1.38158,-0.271689 0.52821,-0.181053 1.03396,-0.520692 1.51703,-1.018918 0.48317,-0.498115 0.89065,-1.207716 1.22288,-2.128803 0.33222,-0.920644 0.49811,-2.105895 0.49811,-3.555199 0,-1.449304 -0.16589,-2.626586 -0.49811,-3.532622 -0.33223,-0.905594 -0.73971,-1.607669 -1.22288,-2.105895 -0.48307,-0.498115 -0.98882,-0.837865 -1.51703,-1.018917 -0.52855,-0.181274 -0.98882,-0.271579 -1.38158,-0.271579 -0.39243,0 -0.85291,0.09031 -1.38124,0.271579 -0.52822,0.181052 -1.03397,0.520802 -1.51703,1.018917 -0.48307,0.498226 -0.89099,1.200301 -1.22288,2.105895 -0.33212,0.906036 -0.49812,2.083318 -0.49812,3.532622 0,1.449304 0.166,2.634555 0.49812,3.555199 0.33189,0.921087 0.73981,1.630688 1.22288,2.128803 0.48306,0.498226 0.98881,0.837865 1.51703,1.018918 0.52833,0.181274 0.98881,0.271689 1.38124,0.271689 z m 25.99628,-0.588863 c 0,0.09064 0.0151,0.196435 0.0453,0.317174 0.0602,0.241588 0.0906,0.468014 0.0906,0.6795 0,0.543267 -0.12085,1.033969 -0.36233,1.471879 -0.24159,0.43758 -0.57381,0.80743 -0.99634,1.10955 -0.84539,0.60392 -1.87216,0.90571 -3.07999,0.90571 -0.99623,0 -1.97752,-0.22654 -2.94376,-0.67917 -0.96624,-0.45296 -1.84173,-1.13246 -2.62659,-2.03817 -0.78529,-0.905921 -1.41167,-2.030637 -1.87947,-3.374143 -0.46801,-1.343616 -0.70207,-2.921294 -0.70207,-4.732591 l 0.0451,-13.088665 c 0,-1.811629 0.48318,-3.109982 1.44941,-3.894948 0.96613,-0.785187 2.36995,-1.177615 4.21179,-1.177615 -0.0302,0.211486 -0.0603,0.498115 -0.0904,0.860441 -0.0304,0.332225 -0.053,0.777773 -0.0681,1.336091 -0.015,0.558761 -0.0226,1.290938 -0.0226,2.196532 l 0.0452,2.853233 h 6.06891 c 0,1.358889 -0.37738,2.445534 -1.13213,3.260934 -0.75509,0.815288 -1.82668,1.222767 -3.21578,1.222767 h -1.721 l -0.0452,6.43123 c 0,1.26803 0.11322,2.332431 0.33975,3.192872 0.22643,0.860552 0.53574,1.562296 0.92828,2.105895 0.81529,1.026443 1.87217,1.539942 3.17019,1.539942 0.54371,0 1.08709,-0.07559 1.63069,-0.226426 0.30179,-0.09064 0.58853,-0.181386 0.86044,-0.272022 z m 19.42892,-14.039521 c 0.93614,0.966239 1.66832,2.105895 2.19665,3.419409 0.52821,1.313183 0.79238,2.724859 0.79238,4.234366 0,1.509839 -0.24159,2.921184 -0.72466,4.234698 -0.48317,1.313515 -1.16234,2.453171 -2.03783,3.419411 -0.8756,0.99634 -1.93989,1.7812 -3.19287,2.3549 -1.2532,0.57381 -2.6495,0.86055 -4.18955,0.86055 -1.38877,0 -2.69465,-0.28674 -3.91752,-0.86055 -1.22277,-0.5737 -2.30189,-1.35856 -3.23803,-2.3549 -0.9057,-0.96624 -1.62283,-2.105896 -2.15138,-3.419411 -0.52833,-1.313514 -0.79238,-2.724859 -0.79238,-4.234698 0,-1.509507 0.23395,-2.921183 0.70208,-4.234366 0.46801,-1.313514 1.13965,-2.45317 2.01514,-3.419409 0.87561,-0.996231 1.94001,-1.781418 3.19288,-2.354897 1.25298,-0.573812 2.6496,-0.860774 4.18921,-0.860774 1.4192,0 2.74024,0.286962 3.96301,0.860774 1.22288,0.573479 2.28728,1.358666 3.19287,2.354897 z m -7.15588,14.628384 c 0.39276,0 0.85303,-0.09041 1.38158,-0.271689 0.52832,-0.181053 1.03396,-0.528218 1.51703,-1.041494 0.48317,-0.513498 0.89065,-1.222767 1.22288,-2.128803 0.33222,-0.905705 0.49811,-2.083319 0.49811,-3.532623 0,-1.449304 -0.16589,-2.634112 -0.49811,-3.555198 -0.33223,-0.920755 -0.73971,-1.630356 -1.22288,-2.128472 -0.48307,-0.498115 -0.98871,-0.837864 -1.51703,-1.018917 -0.52855,-0.181273 -0.98882,-0.272021 -1.38158,-0.272021 -0.39243,0 -0.85291,0.09075 -1.38124,0.272021 -0.52822,0.181053 -1.03397,0.520802 -1.51703,1.018917 -0.48307,0.498116 -0.89066,1.207717 -1.22277,2.128472 -0.33223,0.921086 -0.49823,2.105894 -0.49823,3.555198 0,1.449304 0.166,2.626918 0.49823,3.532623 0.33211,0.906036 0.7397,1.615305 1.22277,2.128803 0.48306,0.513276 0.98881,0.860441 1.51703,1.041494 0.52833,0.181274 0.98881,0.271689 1.38124,0.271689 z m 13.54163,-7.517876 c 0,-2.023116 0.29426,-3.676048 0.88313,-4.95935 0.58886,-1.283081 1.35114,-2.286948 2.28716,-3.011599 0.93581,-0.724652 1.98516,-1.215242 3.14739,-1.47188 1.16268,-0.256639 2.31738,-0.384902 3.4649,-0.384902 h 2.2191 c 0.15096,0.634015 0.18106,1.222767 0.0906,1.766145 -0.0605,0.452963 -0.26438,0.890542 -0.61133,1.313514 -0.34727,0.422529 -0.91356,0.679168 -1.69841,0.769805 -0.51317,0.0602 -1.01925,0.173416 -1.51737,0.339749 -0.49822,0.165891 -0.94333,0.452631 -1.33609,0.860441 -0.39243,0.407479 -0.71679,0.988816 -0.97376,1.743569 -0.25653,0.754754 -0.38491,1.766146 -0.38491,3.034508 v 6.566687 c 0,0.906037 0.008,1.638214 0.0226,2.196529 0.0154,0.55876 0.038,1.0042 0.0681,1.33609 0.0302,0.36233 0.0605,0.63435 0.0907,0.81529 -1.84184,0 -3.26104,-0.3849 -4.25727,-1.1547 -0.99635,-0.77014 -1.49457,-2.060746 -1.49457,-3.872377 z" />
  <path
     inkscape:connector-curvature="0"
     id="path15"
     style="fill:#00aa00;fill-opacity:1;fill-rule:evenodd"
     d="m 11.241129,68.99628 c -0.642,-0.5079 -1.3371,-1.2883 -1.853,-2.4346 -3.3528,-7.4492 -4.0445,-9.6367 -0.1933,-10.0333 2.9012,-0.2987 7.2388,-0.1689 10.0873,0.9154 l 0.1046,0.0272 c -2.6379,0.7897 -5.4096,1.4524 -8.2216,1.8756 l -1.51,0.2271 0.2435,1.5069 c 0.005,0.03 0.5383,3.3069 1.3425,7.9157 z m -2.3363,-41.0487 c 0.8668,-0.54 1.4936,0.117 1.4346,0.9978 -0.0315,0.4691 -0.5652,2.131 -2.1838,2.5602 0,0 1.5449,-0.839 1.4757,-2.4466 -0.017,-0.3951 -0.3512,-0.7832 -0.7265,-1.1114 z m 19.5171,-8.8674 c 3.7599,0 6.895,2.6722 7.6105,6.2212 -1.3275,-3.0183 -4.2359,-5.1131 -7.6105,-5.1131 -3.3747,0 -6.2827,2.0948 -7.6105,5.1131 0.7155,-3.549 3.8509,-6.2212 7.6105,-6.2212 z m 0,1.9452 c 3.2136,0 5.8187,2.605 5.8187,5.8186 0,3.2134 -2.6051,5.8184 -5.8187,5.8184 -3.2134,0 -5.8184,-2.605 -5.8184,-5.8184 0,-3.2136 2.605,-5.8186 5.8184,-5.8186 z m -2.6819,34.2323 c 0.1078,-0.9479 0.108,-1.9503 -0.008,-3.4447 -0.1947,-2.5109 -1.5123,-1.3629 -6.0664,-2.8908 -3.8044,-1.277 -12.695,-5.447 -15.3037,-8.3454 -0.5148,-0.5729 -0.8127,-0.9017 -1.2833,-1.501 -0.4368,-0.5559 -0.7248,-0.7217 -1.0167,-1.1565 0.5978,-0.0661 1.1871,-0.1029 1.7671,-0.1145 0.2276,-0.005 0.4535,-0.005 0.678,-0.003 l 1.5381,2.1971 0.5661,-2.0673 c 2.1628,0.2364 4.1445,0.7626 5.8677,1.3278 0.8527,0.2798 1.7322,0.5879 2.6305,0.9014 l -0.3699,2.0472 2.6796,-1.2546 c 1.3884,0.4614 2.8046,0.8937 4.2214,1.2214 l 0.1981,1.9803 2.0112,-1.5644 c 1.559,0.2191 3.1025,0.2624 4.5944,0.0283 l 0.396,2.0004 2.2875,-2.77 c 1.3179,-0.5715 2.5722,-1.4375 3.7333,-2.6816 -7.9937,5.5953 -18.377,-0.6582 -26.3223,-1.9394 -4.9036,-0.7909 -7.0973,-0.3172 -8.07790002,0.2344 -2.19769998,-1.226 4.09720002,-11.0948 5.60730002,-12.9901 2.9355,-3.6842 13.1485,-2.6861 17.0013,-5.8501 4.0238,-3.3075 10.8148,0.6389 13.921,3.4362 2.6538,2.3898 3.4662,6.1401 4.1414,9.5082 0.3679,1.8352 0.7546,3.6876 0.9638,5.5596 0.7282,6.5239 -1.1192,8.7162 -2.6961,11.3374 l -0.007,-0.005 -0.004,0.003 -0.004,-0.003 -0.2775,0.176 -0.523,0.3223 c -0.0241,0.0148 -5.3373,3.331 -12.8438,6.2995 z m 22.6446,56.5514 c -0.2707,0.8912 -0.5326,2.151 -0.726,4.2843 -0.1102,1.2158 5.8003,0.097 10.2116,0.3322 0.3095,0.0168 18.6106,1.0353 14.1775,-0.5349 -0.5922,-0.2097 -7.8302,-3.5135 -9.7558,-4.026 -3.6995,-0.985 -6.3348,-0.0448 -6.5055,-1.1642 -0.2772,-1.815 0.5874,-4.4716 1.8907,-8.2409 -2.4868,2.7386 -5.9051,6.2348 -9.0878,9.1619 z m -17.318,0.6095 c 0.2064,0.8447 0.3991,1.9862 0.5499,3.6748 0.1086,1.2158 -5.7143,0.097 -10.0607,0.3322 -0.3047,0.0168 -18.335,1.0353 -13.9674,-0.5349 0.5836,-0.2097 7.7142,-3.5135 9.6114,-4.026 3.6445,-0.985 6.2408,-0.0448 6.4091,-1.1642 0.2455,-1.631 -0.4172,-3.9416 -1.4862,-7.1286 2.3559,2.5328 5.2994,5.5061 8.0652,8.0496 0.2942,0.2704 0.5876,0.5363 0.8787,0.7971 z M 42.239429,0.80377998 C 67.938329,8.74058 69.712829,34.91088 66.177729,59.10938 c -2.0574,-0.3691 -4.0839,-0.8575 -6.0429,-1.4205 l 0.004,-0.028 c 3.1822,-20.8783 2.3446,-43.1119 -13.2936,-53.096 -0.7963,-0.5083 -6.0055,-3.301 -8.2758,-4.22280002 -0.7554,-0.3067 -0.4059,-0.7594 3.6698,0.4617 z" />
  <path
     inkscape:connector-curvature="0"
     id="path17"
     style="fill:#000000;fill-rule:evenodd"
     d="m 26.526929,23.82318 c 0.9182,-0.002 1.6665,1.5463 1.6713,3.4594 0.005,1.9128 -0.7353,3.4653 -1.6534,3.4676 -0.9182,0.002 -1.6665,-1.5463 -1.6713,-3.4591 -0.005,-1.9129 0.7353,-3.4654 1.6534,-3.4679 z m -0.1709,1.3413 c 0.2273,-6e-4 0.4127,0.383 0.4139,0.8569 10e-4,0.4737 -0.1823,0.8584 -0.4096,0.8589 -0.2274,6e-4 -0.4128,-0.3829 -0.4139,-0.8569 -10e-4,-0.4737 0.182,-0.8583 0.4096,-0.8589 z" />
  <path
     inkscape:connector-curvature="0"
     id="path19"
     style="fill:#ab0000;fill-opacity:1;fill-rule:evenodd"
     d="m 39.350329,52.01738 c -3.0387,1.779 -14.1197,7.8993 -26.2247,10.0738 1.0749,6.4774 5.4085,32.0833 7.1583,34.7079 1.2453,1.8678 6.8723,7.926 11.9517,12.5972 3.3092,3.0433 6.2368,5.4397 7.1413,5.4397 v 0.005 h 0.0233 v -0.005 c 0.9045,0 3.8322,-2.3964 7.1413,-5.4397 5.0794,-4.6712 10.7065,-10.7294 11.9517,-12.5972 1.7499,-2.6246 6.0835,-28.2305 7.1584,-34.7079 -12.1051,-2.1745 -23.186,-8.2945 -26.2248,-10.0738 l -0.0382,0.0244 z m 0.0383,54.9003 -0.0117,5e-4 c -1.2908,0 -3.6941,-1.9321 -6.163,-4.386 -3.2831,-3.263 -6.9755,-7.5844 -7.8256,-8.962 -1.539,-2.4945 -4.9729,-25.3318 -4.9828,-25.3973 l -0.2253,-1.4754 1.4799,-0.2407 c 8.72,-1.4182 16.8475,-6.9015 16.8707,-6.9171 l 0.8498,-0.5735 0.008,0.005 0.008,-0.005 0.8501,0.5735 c 0.0233,0.0156 8.1508,5.4989 16.8707,6.9171 l 1.48,0.2407 -0.2254,1.4754 c -0.01,0.0655 -3.4438,22.9028 -4.9827,25.3973 -0.8501,1.3776 -4.5425,5.699 -7.8256,8.962 -2.469,2.4539 -4.8719,4.386 -6.1631,4.386 z" />
  <path
     inkscape:connector-curvature="0"
     id="path21"
     style="fill:#000000;fill-rule:evenodd;stroke:#000000;stroke-width:1.00010002;stroke-linecap:butt;stroke-linejoin:miter;stroke-dasharray:none"
     d="m 52.132929,70.73968 c -1.554,4.0507 -2.9934,7.7572 -4.3181,11.1203 -0.5607,1.4519 -1.1273,2.8913 -1.7005,4.318 -0.5731,1.4267 -1.1083,2.7513 -1.6049,3.9742 -0.497,1.2228 -0.9428,2.2864 -1.3377,3.1906 -0.3949,0.9046 -0.6942,1.5478 -0.898,1.9299 -0.4329,0.8152 -0.9425,1.3756 -1.5285,1.6815 -0.5859,0.3056 -1.1335,0.4839 -1.6432,0.5349 -0.6367,0.0765 -1.2609,0.0127 -1.8723,-0.1911 l -10.5851,-26.5583 c 0.6114,-0.1018 1.2291,-0.1463 1.8533,-0.1336 0.6242,0.0128 1.2038,0.1146 1.7387,0.3056 0.5349,0.1911 1.0253,0.4842 1.4712,0.879 0.4459,0.3949 0.8087,0.9236 1.0891,1.5857 0.0255,0.1021 0.1465,0.4269 0.3631,0.9746 0.2166,0.5476 0.4839,1.2356 0.8025,2.0633 0.3183,0.828 0.6687,1.7516 1.0508,2.7706 0.3821,1.0191 0.777,2.0509 1.1846,3.0952 0.9425,2.4712 2.0126,5.2353 3.2099,8.2924 1.1719,-3.0571 2.2292,-5.8212 3.1717,-8.2924 0.4077,-1.0443 0.8025,-2.0761 1.1846,-3.0952 0.3821,-1.019 0.7325,-1.9426 1.0508,-2.7706 0.3186,-0.8277 0.586,-1.5157 0.8025,-2.0633 0.2166,-0.5477 0.3504,-0.8725 0.4014,-0.9746 0.2801,-0.6621 0.6432,-1.1908 1.0891,-1.5857 0.4456,-0.3948 0.936,-0.6879 1.4712,-0.879 0.5349,-0.191 1.108,-0.2928 1.7195,-0.3056 0.6114,-0.0127 1.2228,0.0318 1.8343,0.1336 z" />
</svg>
